<svg width="602" height="424" viewBox="0 0 602 424" fill="none" xmlns="http://www.w3.org/2000/svg">
<g clip-path="url(#clip0_25_2109)">
<path d="M307.454 423.101C325.56 423.101 340.238 408.432 340.238 390.336C340.238 372.24 325.56 357.571 307.454 357.571C289.347 357.571 274.669 372.24 274.669 390.336C274.669 408.432 289.347 423.101 307.454 423.101Z" fill="#436280"/>
<path d="M503.308 421.261C521.649 415.756 541.148 410.015 555.694 396.928C568.692 385.233 577.467 367.376 572.082 349.837C566.708 332.335 550.613 320.664 533.994 314.86C524.569 311.568 514.708 309.741 504.851 308.307C494.136 306.747 483.373 305.469 472.615 304.239C429.057 299.26 385.334 296.218 341.447 295.114C319.792 294.569 298.141 294.582 276.483 294.896C257.141 295.177 236.77 295.17 218.826 286.954C204.873 280.565 192.209 268.941 188.321 253.666C183.832 236.034 192.111 218.077 203.986 205.307C210.245 198.576 217.561 192.911 225.107 187.701C233.294 182.05 241.767 176.799 250.423 171.897C267.472 162.247 285.295 154.035 303.709 147.345C312.793 144.044 322.012 141.196 331.31 138.569C339.162 136.35 347.038 134.128 354.627 131.106C369.297 125.262 383.25 115.364 386.98 99.1369C390.515 83.7575 384.554 67.062 374.105 55.6369C362.015 42.4189 343.787 36.6245 326.311 35.687C306.692 34.6345 287.524 39.5419 269.084 45.7701C249.415 52.4129 230.171 60.051 210.088 65.4316C190.172 70.762 169.871 74.5335 149.369 76.7119C139.332 77.78 128.992 78.986 118.896 78.1683C110.435 77.483 102.016 74.996 95.7804 68.9943C90.4334 63.8481 87.2481 56.7756 88.3432 49.312C88.5421 47.9563 90.6026 48.5327 90.4049 49.88C89.0719 58.9654 95.2512 67.3373 102.866 71.6258C111.666 76.5822 122.375 76.5889 132.173 76.0221C153.418 74.7397 174.519 71.6911 195.258 66.9079C215.636 62.2562 235.286 55.6064 254.913 48.5029C273.555 41.7564 292.613 35.1718 312.528 33.7105C329.808 32.4426 347.986 34.9586 363.04 43.984C376.271 51.9161 386 65.1442 389.1 80.3238C392.129 95.157 387.934 110.087 376.699 120.438C365.066 131.155 349.117 135.737 334.253 139.957C315.4 145.31 296.952 151.566 279.095 159.69C260.995 167.901 243.636 177.655 227.211 188.843C211.356 199.671 195.709 213.296 190.694 232.614C188.358 241.613 188.79 251.157 192.698 259.656C196.173 267.213 201.897 273.57 208.564 278.474C224.472 290.173 244.522 292.575 263.737 292.814C285.319 293.082 306.901 292.354 328.489 292.708C372.486 293.43 416.393 296.106 460.21 300.738C471.189 301.899 482.155 303.183 493.106 304.589C502.957 305.854 512.841 307.111 522.525 309.358C539.746 313.352 556.503 321.033 567.206 335.626C571.956 341.951 574.899 349.446 575.72 357.312C576.47 365.52 574.459 373.744 570.746 381.046C562.527 397.208 547.131 407.488 530.782 414.242C522.025 417.86 512.942 420.6 503.877 423.321C502.556 423.718 501.992 421.656 503.308 421.261L503.308 421.261Z" fill="#F2F2F2"/>
<path d="M89.7238 66.5993C99.1705 66.5993 106.829 58.9456 106.829 49.5043C106.829 40.063 99.1705 32.4093 89.7238 32.4093C80.2771 32.4093 72.619 40.063 72.619 49.5043C72.619 58.9456 80.2771 66.5993 89.7238 66.5993Z" fill="#F2F2F2"/>
<path d="M208.388 99.0086C217.835 99.0086 225.493 91.3549 225.493 81.9136C225.493 72.4723 217.835 64.8186 208.388 64.8186C198.942 64.8186 191.284 72.4723 191.284 81.9136C191.284 91.3549 198.942 99.0086 208.388 99.0086Z" fill="#F2F2F2"/>
<path d="M308.879 34.19C318.326 34.19 325.984 26.5363 325.984 17.095C325.984 7.6537 318.326 0 308.879 0C299.432 0 291.774 7.6537 291.774 17.095C291.774 26.5363 299.432 34.19 308.879 34.19Z" fill="#F2F2F2"/>
<path d="M371.597 106.844C381.043 106.844 388.701 99.1901 388.701 89.7488C388.701 80.3075 381.043 72.6538 371.597 72.6538C362.15 72.6538 354.492 80.3075 354.492 89.7488C354.492 99.1901 362.15 106.844 371.597 106.844Z" fill="#F2F2F2"/>
<path d="M286.785 190.894C296.232 190.894 303.89 183.241 303.89 173.799C303.89 164.358 296.232 156.704 286.785 156.704C277.339 156.704 269.681 164.358 269.681 173.799C269.681 183.241 277.339 190.894 286.785 190.894Z" fill="#F2F2F2"/>
<path d="M179.168 231.495C188.614 231.495 196.272 223.841 196.272 214.4C196.272 204.959 188.614 197.305 179.168 197.305C169.721 197.305 162.063 204.959 162.063 214.4C162.063 223.841 169.721 231.495 179.168 231.495Z" fill="#F2F2F2"/>
<path d="M293.2 294.889C302.646 294.889 310.304 287.235 310.304 277.794C310.304 268.353 302.646 260.699 293.2 260.699C283.753 260.699 276.095 268.353 276.095 277.794C276.095 287.235 283.753 294.889 293.2 294.889Z" fill="#F2F2F2"/>
<path d="M415.784 330.503C425.231 330.503 432.889 322.85 432.889 313.408C432.889 303.967 425.231 296.313 415.784 296.313C406.337 296.313 398.679 303.967 398.679 313.408C398.679 322.85 406.337 330.503 415.784 330.503Z" fill="#F2F2F2"/>
<path d="M559.037 322.668C568.483 322.668 576.141 315.015 576.141 305.573C576.141 296.132 568.483 288.478 559.037 288.478C549.59 288.478 541.932 296.132 541.932 305.573C541.932 315.015 549.59 322.668 559.037 322.668Z" fill="#F2F2F2"/>
<path d="M303.942 48.4383C252.704 48.8 210.752 90.4136 210.024 141.618C210.017 142.09 210.014 145.415 210.015 149.762C210.015 156.137 212.549 162.25 217.059 166.758C221.569 171.266 227.686 173.798 234.064 173.799H234.064C237.226 173.799 240.356 173.175 243.277 171.965C246.198 170.754 248.851 168.981 251.086 166.745C253.32 164.509 255.092 161.856 256.3 158.935C257.508 156.015 258.128 152.885 258.125 149.725C258.123 146.768 258.122 144.721 258.122 144.595C258.12 136.682 260.179 128.904 264.098 122.027C268.016 115.151 273.658 109.412 280.468 105.375C287.279 101.339 295.023 99.1435 302.94 99.0057C310.857 98.8679 318.674 100.792 325.621 104.589C332.568 108.386 338.406 113.925 342.562 120.662C346.717 127.398 349.046 135.099 349.32 143.008C349.594 150.917 347.804 158.761 344.125 165.768C340.445 172.775 335.004 178.705 328.337 182.973L328.345 182.983C328.345 182.983 294.115 205.007 283.68 235.219L283.689 235.222C281.854 241.411 280.924 247.833 280.928 254.288C280.928 256.942 281.084 280.16 281.386 299.004C281.491 305.506 284.15 311.706 288.789 316.267C293.428 320.827 299.674 323.382 306.181 323.381H306.181C309.45 323.38 312.687 322.734 315.706 321.479C318.725 320.224 321.465 318.384 323.77 316.067C326.074 313.749 327.898 310.999 329.135 307.974C330.372 304.95 330.999 301.71 330.978 298.443C330.874 281.185 330.817 261.089 330.817 259.63C330.817 241.079 348.724 222.595 363.433 210.541C380.371 196.661 392.559 177.745 397.455 156.408C398.538 152.015 399.136 147.516 399.236 142.993C399.236 130.518 396.766 118.166 391.969 106.65C387.171 95.133 380.141 84.6789 371.283 75.8898C362.425 67.1007 351.915 60.1502 340.357 55.4388C328.8 50.7274 316.423 48.3482 303.942 48.4383V48.4383Z" fill="#436280"/>
<path d="M601.151 424H0.848602C0.623965 423.999 0.408756 423.91 0.250144 423.751C0.0915311 423.592 0.00245619 423.376 0.00245619 423.152C0.00245619 422.927 0.0915311 422.712 0.250144 422.553C0.408756 422.394 0.623965 422.304 0.848602 422.304H601.151C601.376 422.304 601.592 422.393 601.751 422.552C601.911 422.711 602 422.927 602 423.152C602 423.377 601.911 423.593 601.751 423.752C601.592 423.911 601.376 424 601.151 424V424Z" fill="#3F3D56"/>
<path d="M447.895 194.453C459.704 194.453 469.276 184.886 469.276 173.084C469.276 161.282 459.704 151.715 447.895 151.715C436.087 151.715 426.514 161.282 426.514 173.084C426.514 184.886 436.087 194.453 447.895 194.453Z" fill="#2F2E41"/>
<path d="M408.386 414.646H399.649L395.491 380.963H408.388L408.386 414.646Z" fill="#A0616A"/>
<path d="M393.407 412.15H410.258V422.754H382.797C382.797 421.362 383.072 419.983 383.605 418.696C384.138 417.41 384.92 416.241 385.905 415.256C386.89 414.272 388.06 413.49 389.347 412.958C390.634 412.425 392.014 412.15 393.407 412.15Z" fill="#2F2E41"/>
<path d="M476.092 414.646H467.355L463.198 380.963H476.094L476.092 414.646Z" fill="#A0616A"/>
<path d="M461.114 412.15H477.965V422.754H450.504C450.504 421.362 450.778 419.983 451.311 418.696C451.845 417.41 452.626 416.241 453.611 415.256C454.597 414.272 455.766 413.49 457.053 412.958C458.341 412.425 459.72 412.15 461.114 412.15V412.15Z" fill="#2F2E41"/>
<path d="M444.646 194.578C454.314 194.578 462.151 186.745 462.151 177.083C462.151 167.421 454.314 159.588 444.646 159.588C434.979 159.588 427.142 167.421 427.142 177.083C427.142 186.745 434.979 194.578 444.646 194.578Z" fill="#A0616A"/>
<path d="M455.079 251.016L462.912 233.03C464.814 228.811 465.359 224.106 464.472 219.564C463.585 215.022 461.309 210.867 457.959 207.673C457.271 206.993 456.54 206.358 455.771 205.771C451.906 202.749 447.143 201.103 442.237 201.091C438.938 201.104 435.68 201.828 432.687 203.214C432.43 203.328 432.18 203.449 431.924 203.57C431.432 203.805 430.948 204.062 430.477 204.325C427.409 206.086 424.798 208.543 422.854 211.497C420.91 214.452 419.689 217.821 419.288 221.335L415.831 250.282C414.962 252.554 383.945 334.61 394.792 397.257C394.908 397.925 395.234 398.54 395.724 399.01C396.214 399.481 396.841 399.782 397.515 399.871L408.512 401.366C409.315 401.476 410.13 401.278 410.792 400.811C411.454 400.345 411.916 399.645 412.082 398.852L430.534 310.948C430.649 310.402 430.944 309.91 431.372 309.551C431.799 309.192 432.335 308.987 432.893 308.968C433.451 308.949 433.999 309.118 434.45 309.447C434.901 309.776 435.229 310.247 435.38 310.784L461.451 403.226C461.637 403.897 462.038 404.489 462.593 404.911C463.147 405.333 463.826 405.562 464.523 405.562C464.731 405.561 464.938 405.541 465.143 405.505L478.577 402.919C479.358 402.773 480.056 402.341 480.535 401.707C481.014 401.073 481.238 400.284 481.164 399.493C479.19 377.49 468.699 267.277 455.079 251.016Z" fill="#2F2E41"/>
<path d="M376.619 191.642C376.497 192.682 376.605 193.736 376.936 194.73C377.266 195.724 377.81 196.633 378.53 197.394C379.25 198.155 380.128 198.749 381.102 199.134C382.076 199.518 383.123 199.685 384.169 199.622L393.954 223.122L401.355 212.157L390.929 191.522C390.706 189.773 389.85 188.167 388.521 187.007C387.192 185.847 385.484 185.215 383.72 185.229C381.957 185.244 380.259 185.905 378.95 187.087C377.641 188.269 376.812 189.89 376.619 191.642L376.619 191.642Z" fill="#A0616A"/>
<path d="M443.676 274.679C444.716 274.554 445.716 274.204 446.606 273.651C447.496 273.099 448.254 272.358 448.827 271.481C449.4 270.604 449.773 269.612 449.92 268.575C450.068 267.539 449.986 266.482 449.681 265.481L470.268 250.495L457.874 245.856L440.224 260.798C438.575 261.422 437.211 262.629 436.392 264.19C435.573 265.752 435.356 267.559 435.781 269.27C436.207 270.981 437.245 272.477 438.7 273.474C440.155 274.47 441.925 274.899 443.676 274.679V274.679Z" fill="#A0616A"/>
<path d="M410.116 238.789C409.326 238.789 408.539 238.711 407.765 238.558C405.892 238.202 404.136 237.391 402.651 236.196C401.166 235.002 399.998 233.46 399.25 231.708L385.542 215.003C385.252 214.65 385.041 214.239 384.923 213.797C384.805 213.356 384.783 212.895 384.858 212.444C384.933 211.993 385.103 211.564 385.358 211.185C385.612 210.805 385.945 210.485 386.334 210.244L396.086 204.211C396.446 203.988 396.847 203.838 397.265 203.771C397.683 203.704 398.111 203.72 398.523 203.819C398.934 203.918 399.323 204.097 399.665 204.346C400.007 204.596 400.296 204.91 400.516 205.272L410.178 221.18L428.68 207.514C430.154 206.742 431.855 206.526 433.475 206.904C435.095 207.283 436.524 208.231 437.502 209.576C438.48 210.92 438.941 212.572 438.802 214.229C438.662 215.885 437.93 217.436 436.741 218.598L418.273 235.435C416.103 237.584 413.171 238.79 410.116 238.789Z" fill="#2F2E41"/>
<path d="M460.112 263.914C460.087 263.914 460.061 263.914 460.036 263.913C459.587 263.902 459.144 263.797 458.738 263.604C458.331 263.412 457.97 263.136 457.677 262.795L449.006 252.685C448.711 252.34 448.492 251.937 448.364 251.502C448.236 251.067 448.202 250.61 448.264 250.161C448.326 249.711 448.482 249.28 448.723 248.896C448.964 248.512 449.284 248.183 449.662 247.932L465.898 237.114L451.189 219.44C450.334 218.014 450.02 216.329 450.305 214.691C450.59 213.053 451.455 211.572 452.743 210.52C454.03 209.467 455.653 208.912 457.316 208.956C458.979 209.001 460.57 209.642 461.799 210.762L479.676 228.223C481.083 229.507 482.157 231.114 482.806 232.905C483.455 234.695 483.66 236.617 483.402 238.504C483.145 240.391 482.433 242.188 481.327 243.739C480.222 245.291 478.757 246.551 477.057 247.412L462.446 262.907C462.146 263.225 461.784 263.478 461.383 263.651C460.981 263.824 460.549 263.913 460.112 263.914Z" fill="#2F2E41"/>
<path d="M440.195 226.662C440.056 226.661 439.917 226.653 439.779 226.635C439.175 226.562 438.605 226.317 438.137 225.929C437.668 225.542 437.32 225.028 437.135 224.449L430.619 204.484C430.456 203.979 430.481 203.433 430.69 202.945C430.899 202.457 431.277 202.062 431.755 201.831L431.966 201.731C432.158 201.64 432.348 201.55 432.542 201.464C435.58 200.056 438.887 199.321 442.237 199.311C446.585 199.319 450.835 200.595 454.468 202.984C454.955 203.308 455.295 203.81 455.415 204.382C455.535 204.954 455.426 205.55 455.11 206.043L442.887 225.18C442.601 225.635 442.203 226.009 441.732 226.268C441.262 226.527 440.733 226.662 440.195 226.662V226.662Z" fill="#E6E6E6"/>
<path d="M464.752 163.544C468.616 163.544 471.749 160.414 471.749 156.552C471.749 152.69 468.616 149.56 464.752 149.56C460.888 149.56 457.756 152.69 457.756 156.552C457.756 160.414 460.888 163.544 464.752 163.544Z" fill="#2F2E41"/>
<path d="M440.768 148.866C435.854 148.866 431.141 150.817 427.666 154.29C424.191 157.763 422.238 162.474 422.238 167.386V175.221H431.881L436.492 167.386L437.876 175.221H467.138L459.299 167.386C459.299 162.474 457.346 157.763 453.871 154.29C450.396 150.817 445.683 148.866 440.768 148.866V148.866Z" fill="#2F2E41"/>
<path d="M468.348 151.762C469.122 149.344 470.724 147.277 472.872 145.922C475.02 144.568 477.578 144.014 480.094 144.358C484.553 145.103 488.078 148.685 490.178 152.685C492.279 156.686 493.249 161.163 494.661 165.455C496.073 169.747 498.076 174.062 501.64 176.84C505.205 179.619 510.675 180.372 514.176 177.514C513.777 180.493 512.45 183.27 510.384 185.454C508.318 187.637 505.617 189.116 502.664 189.682C499.711 190.248 496.655 189.871 493.927 188.605C491.2 187.34 488.94 185.249 487.467 182.629C485.619 179.344 485.142 175.494 484.594 171.766C484.047 168.038 483.335 164.18 481.129 161.124C478.924 158.068 474.795 156.072 471.291 157.464L468.348 151.762Z" fill="#2F2E41"/>
<path d="M240.854 162.43C234.476 162.429 228.359 159.896 223.849 155.389C219.339 150.881 216.805 144.768 216.805 138.393C216.805 134.045 216.808 130.721 216.814 130.248C217.017 115.357 220.77 100.728 227.761 87.5759C216.274 103.291 209.959 122.185 209.687 141.645C209.681 142.118 209.678 145.442 209.678 149.79C209.678 156.164 212.212 162.278 216.722 166.785C221.232 171.293 227.349 173.826 233.727 173.827V173.827C238.969 173.825 244.066 172.113 248.245 168.951C252.424 165.79 255.456 161.352 256.881 156.311C252.478 160.258 246.769 162.437 240.854 162.43V162.43Z" fill="#3F3D56"/>
<path d="M305.572 99.0864C312.946 99.4384 320.124 101.574 326.49 105.309C332.856 109.044 338.22 114.268 342.121 120.531C346.023 126.795 348.344 133.911 348.888 141.269C349.431 148.627 348.179 156.007 345.24 162.775C349.491 157.785 352.616 151.937 354.401 145.631C356.186 139.325 356.59 132.708 355.584 126.232C354.579 119.756 352.188 113.573 348.575 108.104C344.961 102.635 340.21 98.0087 334.646 94.5411C329.082 91.0735 322.835 88.8457 316.331 88.0097C309.827 87.1737 303.219 87.7492 296.958 89.6968C290.697 91.6445 284.93 94.9185 280.049 99.2957C275.169 103.673 271.29 109.05 268.678 115.062C273.193 109.753 278.868 105.552 285.265 102.782C291.661 100.012 298.609 98.748 305.572 99.0864V99.0864Z" fill="#3F3D56"/>
<path d="M312.971 312.011C306.464 312.013 300.218 309.458 295.579 304.897C290.941 300.337 288.282 294.137 288.176 287.635C287.875 268.79 287.718 245.572 287.718 242.919C287.714 236.464 288.644 230.042 290.479 223.852L290.47 223.85C291.554 220.743 292.863 217.72 294.386 214.803C289.709 221.032 285.988 227.922 283.343 235.247L283.352 235.249C281.517 241.438 280.587 247.86 280.591 254.316C280.591 256.969 280.748 280.187 281.049 299.032C281.155 305.534 283.814 311.734 288.452 316.294C293.091 320.854 299.337 323.409 305.844 323.408V323.408C311.209 323.407 316.429 321.668 320.721 318.451C325.013 315.234 328.146 310.713 329.65 305.566C325.091 309.721 319.141 312.02 312.971 312.011V312.011Z" fill="#3F3D56"/>
<path d="M90.1858 414.971L98.9227 414.97L103.08 381.287L90.1836 381.288L90.1858 414.971Z" fill="#FFB8B8"/>
<path d="M115.774 423.078L88.3135 423.08L88.313 412.476L105.164 412.475C107.978 412.475 110.677 413.592 112.666 415.58C114.656 417.569 115.774 420.266 115.774 423.078V423.078L115.774 423.078Z" fill="#2F2E41"/>
<path d="M58.827 414.971L67.5639 414.97L71.7211 381.287L58.8248 381.288L58.827 414.971Z" fill="#FFB8B8"/>
<path d="M84.4155 423.078L56.9547 423.08L56.9542 412.476L73.8052 412.475C76.6191 412.475 79.3178 413.592 81.3076 415.58C83.2974 417.569 84.4154 420.266 84.4155 423.078V423.078L84.4155 423.078Z" fill="#2F2E41"/>
<path d="M66.4623 404.611L57.9277 404.163C57.4877 404.14 57.0565 404.029 56.6594 403.839C56.2622 403.648 55.9069 403.38 55.614 403.051C55.3211 402.722 55.0964 402.338 54.953 401.921C54.8097 401.505 54.7504 401.064 54.7787 400.625L64.9793 287.751L111.954 300.419L116.48 299.185L102.327 399.109C102.206 399.861 101.833 400.549 101.268 401.06C100.703 401.57 99.9812 401.874 99.2208 401.919L90.0206 402.347C89.5606 402.373 89.1003 402.303 88.6687 402.141C88.2372 401.98 87.8439 401.731 87.5135 401.41C87.1832 401.089 86.9231 400.703 86.7497 400.276C86.5763 399.849 86.4933 399.392 86.506 398.931L88.173 338.959C88.1808 338.682 88.0844 338.411 87.9027 338.202C87.7211 337.992 87.4675 337.858 87.1917 337.825C86.916 337.793 86.6382 337.865 86.4131 338.028C86.188 338.19 86.0319 338.431 85.9756 338.702L69.8993 401.963C69.7475 402.713 69.34 403.388 68.7462 403.872C68.1524 404.356 67.409 404.619 66.6428 404.616C66.5831 404.616 66.5229 404.615 66.4623 404.611Z" fill="#2F2E41"/>
<path d="M91.7544 195.396C101.422 195.396 109.259 187.563 109.259 177.901C109.259 168.239 101.422 160.407 91.7544 160.407C82.0869 160.407 74.2498 168.239 74.2498 177.901C74.2498 187.563 82.0869 195.396 91.7544 195.396Z" fill="#FFB8B8"/>
<path d="M62.6104 229.299L64.5351 270.803L65.2309 285.902C65.2586 286.56 65.4819 287.194 65.8722 287.724C66.2625 288.253 66.8021 288.655 67.4219 288.876L112.561 305.219C112.926 305.354 113.312 305.422 113.701 305.419C114.146 305.421 114.587 305.333 114.997 305.162C115.407 304.99 115.778 304.737 116.088 304.419C116.398 304.101 116.641 303.723 116.802 303.309C116.963 302.895 117.039 302.452 117.025 302.008L115.175 227.383C115.053 221.261 112.798 215.372 108.798 210.733C104.798 206.094 99.3046 202.995 93.2637 201.971C92.8271 201.904 92.3828 201.838 91.9386 201.778C88.1928 201.314 84.3905 201.675 80.7994 202.837C77.2083 203.999 73.9155 205.933 71.1527 208.503C68.292 211.133 66.0441 214.359 64.568 217.952C63.0919 221.546 62.4236 225.419 62.6104 229.299L62.6104 229.299Z" fill="#CCCCCC"/>
<path d="M134.125 296.937C133.057 296.606 132.082 296.03 131.276 295.255C130.471 294.481 129.858 293.528 129.486 292.475C129.114 291.421 128.994 290.295 129.135 289.187C129.276 288.079 129.675 287.019 130.298 286.092L114.991 265.749L128.2 264.931L140.711 284.375C142.051 285.41 142.983 286.883 143.344 288.536C143.705 290.189 143.472 291.917 142.686 293.415C141.901 294.914 140.612 296.088 139.046 296.732C137.481 297.376 135.738 297.449 134.125 296.937H134.125Z" fill="#FFB8B8"/>
<path d="M123.362 282.41C122.956 282.246 122.588 282.002 122.277 281.695C121.966 281.387 121.719 281.02 121.551 280.616L98.4892 225.703C98.0367 224.627 97.8006 223.474 97.7945 222.307C97.7883 221.141 98.0122 219.985 98.4533 218.905C98.8945 217.825 99.5442 216.843 100.365 216.014C101.187 215.185 102.163 214.526 103.239 214.075C104.315 213.623 105.47 213.388 106.637 213.383C107.804 213.378 108.961 213.602 110.041 214.044C111.121 214.486 112.104 215.136 112.932 215.957C113.761 216.779 114.419 217.755 114.87 218.831L137.932 273.746C138.273 274.56 138.276 275.476 137.942 276.293C137.608 277.11 136.964 277.761 136.15 278.104L125.912 282.398C125.508 282.568 125.076 282.657 124.638 282.659C124.2 282.662 123.767 282.577 123.362 282.41L123.362 282.41Z" fill="#CCCCCC"/>
<path d="M86.1265 280.473L108.277 238.086C108.704 237.27 109.437 236.658 110.316 236.382C111.194 236.107 112.146 236.191 112.963 236.616L145.114 253.398C145.929 253.824 146.542 254.557 146.818 255.435C147.094 256.313 147.01 257.265 146.584 258.081L124.434 300.468C124.007 301.284 123.274 301.896 122.395 302.172C121.517 302.447 120.565 302.363 119.748 301.938L87.5971 285.157C86.7815 284.73 86.1686 283.997 85.8929 283.119C85.6172 282.241 85.7012 281.289 86.1265 280.473Z" fill="#3F3D56"/>
<path d="M100.981 261.107C100.587 260.062 99.9546 259.123 99.1332 258.365C98.3117 257.607 97.3244 257.052 96.2501 256.743C95.1757 256.435 94.0441 256.381 92.9454 256.587C91.8467 256.793 90.8115 257.253 89.9223 257.93L68.6992 243.86L68.6631 257.087L88.8224 268.421C89.9352 269.696 91.4618 270.539 93.1342 270.801C94.8067 271.064 96.5183 270.73 97.9689 269.857C99.4195 268.985 100.516 267.63 101.067 266.03C101.618 264.43 101.588 262.687 100.981 261.107V261.107Z" fill="#FFB8B8"/>
<path d="M74.1481 264.082L56.8033 250.351C54.9269 249.721 53.2314 248.646 51.8624 247.217C50.4934 245.788 49.4918 244.049 48.9434 242.148C48.3951 240.247 48.3165 238.242 48.7143 236.304C49.1121 234.366 49.9746 232.554 51.2275 231.022L66.9761 210.395C68.0705 209.058 69.6097 208.16 71.3122 207.864C73.0147 207.568 74.7669 207.895 76.2484 208.784C77.73 209.673 78.8419 211.065 79.381 212.706C79.9201 214.347 79.8503 216.127 79.1844 217.72L66.7237 238.092L85.0358 246.772C85.4616 246.974 85.8397 247.264 86.1452 247.623C86.4506 247.981 86.6764 248.401 86.8076 248.853C86.9389 249.306 86.9725 249.781 86.9065 250.247C86.8404 250.713 86.676 251.161 86.4242 251.559L79.0323 263.25C78.7824 263.645 78.4524 263.983 78.0636 264.242C77.6748 264.501 77.2359 264.675 76.7754 264.754C76.7571 264.757 76.7387 264.76 76.7203 264.763C76.2677 264.831 75.806 264.806 75.3636 264.689C74.9211 264.572 74.5074 264.365 74.1481 264.082V264.082Z" fill="#CCCCCC"/>
<path d="M78.5275 189.616C78.4523 189.396 78.4285 189.162 78.4578 188.932C78.4871 188.702 78.5687 188.482 78.6964 188.288C78.8241 188.094 78.9945 187.932 79.1946 187.814C79.3946 187.696 79.619 187.626 79.8505 187.608C80.3246 187.634 80.7885 187.755 81.2143 187.965C81.6401 188.175 82.0189 188.469 82.3279 188.829C82.9614 189.559 83.6989 190.192 84.5167 190.708C85.3635 191.134 86.5119 191.074 86.9947 190.26C87.448 189.497 87.1374 188.474 86.8629 187.587C86.1646 185.33 85.7739 182.989 85.7013 180.628C85.6222 177.992 85.9943 175.241 87.4543 173.186C89.3386 170.532 92.7079 169.525 95.8966 169.598C99.0852 169.671 102.222 170.655 105.381 171.277C106.471 171.492 107.753 171.601 108.482 170.757C109.257 169.859 108.973 168.405 108.643 167.193C107.787 164.046 106.879 160.793 104.89 158.252C102.74 155.611 99.6685 153.883 96.2944 153.415C93.0551 153.014 89.7668 153.387 86.6998 154.504C81.703 156.078 77.3061 159.139 74.0972 163.278C70.7894 167.68 69.36 173.212 70.1217 178.664C70.8659 183.412 73.3836 187.703 77.1673 190.669L78.5275 189.616Z" fill="#2F2E41"/>
<path d="M300.231 415.109C295.573 413.082 291.451 410.001 288.19 406.109C284.928 402.217 282.616 397.621 281.436 392.683C280.257 387.745 280.241 382.6 281.392 377.655C282.542 372.71 284.826 368.1 288.065 364.189C284.31 366.928 281.181 370.435 278.886 374.476C276.591 378.516 275.183 382.998 274.753 387.625C274.324 392.251 274.884 396.916 276.397 401.309C277.91 405.702 280.34 409.724 283.526 413.107C286.713 416.49 290.583 419.157 294.88 420.931C299.176 422.705 303.801 423.545 308.448 423.396C313.094 423.247 317.656 422.112 321.83 420.066C326.004 418.02 329.695 415.111 332.657 411.53C328.036 414.906 322.611 417.013 316.921 417.641C311.232 418.269 305.477 417.396 300.231 415.109V415.109Z" fill="#3F3D56"/>
</g>
<defs>
<clipPath id="clip0_25_2109">
<rect width="602" height="424" fill="white"/>
</clipPath>
</defs>
</svg>
