<svg width="425" height="456" viewBox="0 0 425 456" fill="none" xmlns="http://www.w3.org/2000/svg">
<g clip-path="url(#clip0_103_2607)">
<path d="M91.9955 184.677C71.9604 164.975 63.4986 144.42 68.168 126.8C74.1603 104.189 100.781 88.5553 141.205 83.9077L141.355 85.2047C101.493 89.7873 75.2785 105.07 69.4313 127.134C64.8869 144.282 73.226 164.387 92.9123 183.747L91.9955 184.677Z" fill="#F0F0F0"/>
<path d="M285.3 254.614C260.295 254.614 233.123 250.902 206.133 243.764C172.756 234.938 142.153 221.615 117.633 205.235L118.359 204.15C142.762 220.451 173.229 233.713 206.467 242.502C236.504 250.446 266.767 254.127 293.971 253.156L294.019 254.46C291.146 254.563 288.239 254.615 285.3 254.614Z" fill="#F0F0F0"/>
<path d="M342.665 246.406L342.246 245.169C364.61 237.616 378.597 225.448 382.696 209.981C387.907 190.318 376.587 167.501 350.82 145.732C324.922 123.852 287.576 105.698 245.661 94.6131L245.995 93.3511C288.093 104.484 325.621 122.733 351.663 144.735C377.837 166.848 389.307 190.138 383.96 210.315C379.743 226.226 365.463 238.706 342.665 246.406Z" fill="#F0F0F0"/>
<path d="M137.315 255.16C88.1817 233.391 50.3207 205.15 30.7071 175.637L31.7956 174.914C51.2736 204.223 88.9358 232.298 137.845 253.967L137.315 255.16Z" fill="#F0F0F0"/>
<path d="M310.064 292.872C304.996 292.872 299.842 292.759 294.601 292.533L294.657 291.229C333.768 292.92 368.278 288.244 394.46 277.704L394.948 278.915C372.109 288.109 342.998 292.872 310.064 292.872Z" fill="#F0F0F0"/>
<path d="M281.556 85.0782C273.435 82.437 265.082 79.9777 256.729 77.7687C208.66 65.0566 161.408 60.5431 120.079 64.7188L119.948 63.4198C161.431 59.2305 208.845 63.7547 257.063 76.5067C265.44 78.7221 273.817 81.1884 281.961 83.8373L281.556 85.0782Z" fill="#F0F0F0"/>
<path d="M61.2884 186.635C41.2534 166.933 32.7915 146.378 37.4609 128.758C43.4533 106.147 70.0744 90.5133 110.498 85.8657L110.648 87.1627C70.7865 91.7453 44.5714 107.028 38.7243 129.092C34.1799 146.24 42.5189 166.345 62.2053 185.705L61.2884 186.635Z" fill="#F0F0F0"/>
<path d="M254.593 256.572C229.588 256.572 202.416 252.86 175.426 245.722C142.049 236.896 111.446 223.573 86.926 207.193L87.6521 206.108C112.054 222.409 142.522 235.671 175.76 244.46C205.797 252.404 236.059 256.085 263.264 255.114L263.312 256.418C260.439 256.521 257.532 256.573 254.593 256.572Z" fill="#F0F0F0"/>
<path d="M311.957 248.364L311.539 247.127C333.902 239.574 347.89 227.406 351.989 211.939C357.2 192.276 345.88 169.459 320.113 147.69C294.215 125.81 256.869 107.656 214.953 96.5711L215.288 95.3091C257.386 106.442 294.914 124.691 320.956 146.693C347.13 168.806 358.6 192.096 353.253 212.273C349.036 228.184 334.756 240.664 311.957 248.364Z" fill="#F0F0F0"/>
<path d="M106.608 257.118C57.4746 235.349 19.6136 207.108 0 177.595L1.08848 176.872C20.5665 206.181 58.2287 234.256 107.137 255.925L106.608 257.118Z" fill="#F0F0F0"/>
<path d="M279.357 294.83C274.289 294.83 269.134 294.716 263.893 294.49L263.95 293.186C303.061 294.878 337.57 290.202 363.753 279.662L364.241 280.873C341.402 290.067 312.291 294.83 279.357 294.83Z" fill="#F0F0F0"/>
<path d="M250.849 87.0361C242.728 84.3949 234.375 81.9357 226.022 79.7266C177.953 67.0145 130.701 62.5011 89.3722 66.6767L89.2408 65.3778C130.724 61.1884 178.138 65.7127 226.356 78.4646C234.733 80.6801 243.11 83.1464 251.254 85.7952L250.849 87.0361Z" fill="#F0F0F0"/>
<path d="M258.975 204.53L270.082 203.225L274.002 237.163L284.01 284.029C285.402 284.706 286.538 285.815 287.248 287.189C287.959 288.563 288.206 290.13 287.953 291.656C287.7 293.182 286.96 294.585 285.844 295.658C284.728 296.73 283.295 297.413 281.759 297.606C280.223 297.799 278.665 297.491 277.318 296.728C275.971 295.965 274.907 294.788 274.284 293.372C273.66 291.956 273.512 290.377 273.859 288.87C274.207 287.363 275.033 286.008 276.214 285.008L266.162 257.395L258.975 204.53Z" fill="#FFB6B6"/>
<path d="M242.84 446.478H251.991L256.344 411.219H242.839L242.84 446.478Z" fill="#FFB6B6"/>
<path d="M240.506 455.338H270.012V454.965C270.012 451.922 268.802 449.005 266.649 446.853C264.495 444.702 261.574 443.493 258.529 443.492H240.506V455.338Z" fill="#2F2E41"/>
<path d="M172.612 441.493L181.597 443.225L192.565 409.431L179.302 406.873L172.612 441.493Z" fill="#FFB6B6"/>
<path d="M168.641 449.751L197.612 455.34L197.683 454.973C198.26 451.986 197.626 448.892 195.92 446.371C194.214 443.851 191.575 442.111 188.584 441.533L170.89 438.12L168.641 449.751Z" fill="#2F2E41"/>
<path d="M257.189 148.916L251.872 159.106L212.05 150.332L216.412 130.575C219.865 114.936 233.707 103.641 249.363 107.091C265.018 110.54 272.323 125.825 268.87 141.464L262.452 161.435L255.96 160.005L257.189 148.916Z" fill="#2F2E41"/>
<path d="M271.388 261.312C271.388 261.312 275.308 280.891 270.082 309.608C264.855 338.325 263.548 350.726 263.548 350.726C263.548 350.726 267.468 355.294 264.855 357.905C262.241 360.515 264.855 365.737 264.855 365.737L258.975 429.044L238.721 425.781L241.335 366.389C241.335 366.389 238.721 361.168 240.028 359.863C241.335 358.557 238.721 350.726 238.721 350.726L235.454 288.723L215.201 356.599C215.201 356.599 217.161 359.21 215.201 361.168C213.241 363.126 209.321 372.916 209.321 372.916L196.254 418.602L175.347 414.686L187.107 362.473C187.107 362.473 185.801 359.21 187.761 357.252C188.332 356.653 188.75 355.924 188.977 355.129C189.205 354.333 189.236 353.494 189.067 352.683C189.067 352.683 187.107 350.726 189.721 348.115C192.334 345.504 193.641 335.062 193.641 335.062C193.641 335.062 195.601 265.228 202.134 261.312C208.667 257.396 271.388 261.312 271.388 261.312Z" fill="#2F2E41"/>
<path d="M241.846 153.322C251.949 153.322 260.14 145.141 260.14 135.048C260.14 124.955 251.949 116.774 241.846 116.774C231.743 116.774 223.553 124.955 223.553 135.048C223.553 145.141 231.743 153.322 241.846 153.322Z" fill="#FFB6B6"/>
<path d="M216.065 158.44C216.065 158.44 202.787 156.886 198.867 160.802L202.787 239.774C202.787 239.774 200.173 241.731 201.48 246.3C202.239 249.299 202.239 252.439 201.48 255.437C201.48 255.437 197.56 260.006 199.52 261.964C201.48 263.922 272.041 262.616 272.041 262.616C272.041 262.616 274.654 258.048 270.734 255.437C266.814 252.827 268.774 245.647 268.774 245.647C268.774 245.647 270.081 243.689 266.814 240.426C263.548 237.163 260.934 210.404 260.934 210.404L269.428 177.771C269.428 177.771 260.878 168.131 251.106 167.404L216.065 158.44Z" fill="#E6E6E6"/>
<path d="M259.305 178.22L269.427 177.771C269.427 177.771 275.307 189.518 275.96 199.961L279.558 238.917L256.36 242.383L259.305 178.22Z" fill="#E6E6E6"/>
<path d="M257.519 135.954L264.314 127.221C264.715 125.382 264.37 123.459 263.356 121.873C262.343 120.287 260.741 119.167 258.903 118.756L233.232 113.1C231.391 112.7 229.466 113.043 227.879 114.056C226.291 115.069 225.169 116.668 224.758 118.505L224.744 118.57L226.582 129.117L226.905 129.059C242.837 126.221 247.375 127.22 257.258 135.733L257.519 135.954Z" fill="#2F2E41"/>
<path d="M189.148 275.5L190.373 224.11L191.68 187.562L207.36 189.52L198.939 276.874C199.825 277.985 200.361 279.333 200.479 280.748C200.598 282.163 200.294 283.581 199.606 284.824C198.918 286.066 197.876 287.076 196.613 287.727C195.349 288.378 193.921 288.641 192.509 288.481C191.097 288.321 189.763 287.746 188.678 286.83C187.592 285.913 186.803 284.695 186.411 283.331C186.018 281.966 186.039 280.516 186.472 279.163C186.904 277.811 187.728 276.616 188.84 275.732C188.941 275.652 189.043 275.574 189.148 275.5V275.5Z" fill="#FFB6B6"/>
<path d="M210.305 161.903L198.867 160.802C198.867 160.802 196.907 160.802 194.947 167.328C192.987 173.855 182.212 242.833 182.212 242.833L206.054 244.994L210.305 161.903Z" fill="#E6E6E6"/>
<path d="M102.03 72.1398C118.447 72.1398 131.756 58.8451 131.756 42.4453C131.756 26.0455 118.447 12.7509 102.03 12.7509C85.6127 12.7509 72.3041 26.0455 72.3041 42.4453C72.3041 58.8451 85.6127 72.1398 102.03 72.1398Z" fill="#436280"/>
<path d="M109.002 60.6944C102.994 60.6944 97.1203 58.9145 92.1245 55.5799C87.1287 52.2454 83.2349 47.5058 80.9355 41.9606C78.6362 36.4153 78.0346 30.3135 79.2068 24.4268C80.379 18.54 83.2723 13.1326 87.5209 8.88849C91.7695 4.64436 97.1825 1.75408 103.076 0.583124C108.968 -0.587827 115.077 0.0131514 120.628 2.31006C126.179 4.60697 130.923 8.49665 134.261 13.4872C137.6 18.4778 139.381 24.3451 139.381 30.3472C139.372 38.393 136.169 46.1066 130.473 51.7958C124.778 57.4851 117.056 60.6853 109.002 60.6944ZM109.002 1.30532C103.252 1.30531 97.6314 3.00859 92.8504 6.19974C88.0695 9.3909 84.3432 13.9266 82.1428 19.2333C79.9423 24.54 79.3666 30.3794 80.4884 36.013C81.6101 41.6465 84.379 46.8213 88.4449 50.8829C92.5107 54.9444 97.6909 57.7104 103.33 58.831C108.97 59.9516 114.815 59.3765 120.128 57.1784C125.44 54.9803 129.98 51.2579 133.175 46.482C136.37 41.7061 138.075 36.0911 138.075 30.3472C138.066 22.6475 135 15.2657 129.55 9.82114C124.1 4.37663 116.71 1.31406 109.002 1.30532Z" fill="#3F3D56"/>
<path d="M375.56 168.818C386.834 168.818 395.973 159.689 395.973 148.427C395.973 137.165 386.834 128.035 375.56 128.035C364.287 128.035 355.147 137.165 355.147 148.427C355.147 159.689 364.287 168.818 375.56 168.818Z" fill="#436280"/>
<path d="M380.349 161.163C376.182 161.163 372.109 159.929 368.645 157.617C365.18 155.304 362.48 152.018 360.886 148.172C359.291 144.327 358.874 140.096 359.687 136.014C360.5 131.931 362.506 128.182 365.452 125.239C368.399 122.295 372.152 120.291 376.239 119.479C380.325 118.667 384.561 119.084 388.41 120.677C392.26 122.269 395.55 124.967 397.865 128.427C400.18 131.888 401.415 135.957 401.415 140.119C401.409 145.698 399.187 151.047 395.238 154.993C391.289 158.938 385.934 161.157 380.349 161.163ZM380.349 120.38C376.441 120.38 372.62 121.538 369.371 123.707C366.121 125.876 363.589 128.958 362.093 132.565C360.597 136.172 360.206 140.141 360.969 143.97C361.731 147.799 363.613 151.316 366.376 154.077C369.14 156.837 372.661 158.717 376.494 159.479C380.327 160.24 384.3 159.849 387.91 158.355C391.521 156.861 394.607 154.332 396.778 151.085C398.95 147.839 400.108 144.023 400.108 140.119C400.103 134.886 398.019 129.868 394.314 126.168C390.61 122.467 385.587 120.386 380.349 120.38Z" fill="#3F3D56"/>
<path d="M424.347 456H32.3418C32.1685 456 32.0023 455.931 31.8798 455.809C31.7572 455.686 31.6884 455.52 31.6884 455.347C31.6884 455.174 31.7572 455.008 31.8798 454.886C32.0023 454.763 32.1685 454.695 32.3418 454.695H424.347C424.52 454.695 424.686 454.763 424.809 454.886C424.931 455.008 425 455.174 425 455.347C425 455.52 424.931 455.686 424.809 455.809C424.686 455.931 424.52 456 424.347 456Z" fill="#CACACA"/>
<path d="M397.034 429.455C394.973 430.179 392.76 430.36 390.608 429.981C388.455 429.602 386.437 428.676 384.748 427.292C380.444 423.684 379.095 417.739 377.997 412.236L374.75 395.955L381.548 400.631C386.437 403.994 391.436 407.465 394.822 412.335C398.207 417.206 399.684 423.855 396.965 429.126" fill="#FD6584"/>
<path d="M395.984 450.298C396.84 444.07 397.72 437.763 397.12 431.469C396.587 425.879 394.88 420.419 391.404 415.943C389.559 413.571 387.314 411.539 384.77 409.938C384.107 409.52 383.496 410.57 384.157 410.986C388.559 413.765 391.963 417.869 393.879 422.705C395.996 428.084 396.336 433.947 395.97 439.66C395.749 443.115 395.282 446.548 394.811 449.976C394.774 450.131 394.797 450.294 394.876 450.433C394.955 450.572 395.083 450.675 395.236 450.723C395.391 450.764 395.557 450.743 395.697 450.664C395.837 450.584 395.94 450.453 395.983 450.298L395.984 450.298Z" fill="#F2F2F2"/>
<path d="M389.825 440.306C388.941 441.649 387.726 442.741 386.297 443.478C384.867 444.215 383.272 444.572 381.665 444.514C377.533 444.318 374.089 441.438 370.989 438.705L361.819 430.615L367.888 430.325C372.252 430.116 376.73 429.922 380.89 431.266C385.049 432.611 388.881 435.847 389.641 440.142" fill="#E6E6E6"/>
<path d="M398.403 453.878C394.287 446.597 389.506 438.505 380.969 435.918C378.595 435.202 376.106 434.945 373.636 435.162C372.857 435.227 373.051 436.428 373.832 436.361C377.972 436.018 382.105 437.11 385.534 439.454C388.834 441.698 391.403 444.817 393.578 448.125C394.91 450.148 396.103 452.264 397.296 454.373C397.674 455.047 398.789 454.56 398.403 453.878Z" fill="#F2F2F2"/>
<path d="M73.827 437.931C75.3114 438.55 76.9303 438.777 78.5278 438.589C80.1254 438.402 81.6477 437.806 82.948 436.861C86.2632 434.391 87.506 430.079 88.5469 426.082L91.6219 414.255L86.4284 417.405C82.6933 419.67 78.8725 422.009 76.1765 425.448C73.4805 428.886 72.1165 433.704 73.8933 437.694" fill="#E6E6E6"/>
<path d="M74.3131 453.974C73.6496 445.639 73.0835 436.259 78.7133 429.346C80.2802 427.426 82.2002 425.822 84.3698 424.622C85.052 424.241 85.5628 425.346 84.8785 425.726C81.2534 427.754 78.4385 430.968 76.9079 434.827C75.4281 438.531 75.0443 442.551 75.0937 446.509C75.1218 448.93 75.3169 451.35 75.5086 453.765C75.5715 454.535 74.3749 454.754 74.3131 453.974Z" fill="#F2F2F2"/>
<path d="M61.9793 247.6C78.1852 247.6 91.3228 234.476 91.3228 218.287C91.3228 202.098 78.1852 188.974 61.9793 188.974C45.7733 188.974 32.6357 202.098 32.6357 218.287C32.6357 234.476 45.7733 247.6 61.9793 247.6Z" fill="#E4E4E4"/>
<path d="M68.8622 236.31C62.9294 236.31 57.1298 234.553 52.1969 231.26C47.2639 227.968 43.4192 223.288 41.1489 217.812C38.8785 212.337 38.2845 206.312 39.442 200.499C40.5994 194.686 43.4564 189.347 47.6515 185.156C51.8467 180.966 57.1916 178.112 63.0104 176.956C68.8292 175.799 74.8606 176.393 80.3417 178.661C85.8229 180.929 90.5077 184.77 93.8038 189.697C97.0999 194.625 98.8591 200.419 98.8591 206.345C98.8501 214.29 95.6868 221.906 90.0632 227.524C84.4397 233.142 76.8151 236.301 68.8622 236.31ZM68.8622 177.685C63.1878 177.685 57.6409 179.366 52.9229 182.515C48.2048 185.665 44.5276 190.141 42.3561 195.378C40.1846 200.614 39.6165 206.377 40.7235 211.936C41.8305 217.496 44.563 222.603 48.5754 226.611C52.5877 230.619 57.6998 233.349 63.2651 234.454C68.8304 235.56 74.599 234.993 79.8415 232.824C85.0839 230.654 89.5647 226.981 92.7172 222.268C95.8697 217.555 97.5524 212.014 97.5524 206.345C97.5438 198.747 94.5184 191.462 89.1398 186.089C83.7612 180.716 76.4687 177.694 68.8622 177.685Z" fill="#2F2E41"/>
<path d="M44.2646 116.396C47.1512 116.396 49.4913 114.058 49.4913 111.175C49.4913 108.291 47.1512 105.954 44.2646 105.954C41.3779 105.954 39.0378 108.291 39.0378 111.175C39.0378 114.058 41.3779 116.396 44.2646 116.396Z" fill="#F2F2F2"/>
<path d="M312.788 90.2899C315.675 90.2899 318.015 87.9523 318.015 85.0686C318.015 82.185 315.675 79.8474 312.788 79.8474C309.901 79.8474 307.561 82.185 307.561 85.0686C307.561 87.9523 309.901 90.2899 312.788 90.2899Z" fill="#FD6584"/>
<path d="M347.415 275.644C350.302 275.644 352.642 273.306 352.642 270.423C352.642 267.539 350.302 265.201 347.415 265.201C344.528 265.201 342.188 267.539 342.188 270.423C342.188 273.306 344.528 275.644 347.415 275.644Z" fill="#F2F2F2"/>
<path d="M113.341 131.604L113.539 130.313L139.067 134.225C136.466 131.717 127.851 123.958 120.037 123.171C110.703 122.232 106.596 126.223 106.054 131.603C105.511 136.982 108.737 141.712 118.072 142.652C125.984 143.449 136.132 137.403 139.041 135.542L113.341 131.604Z" fill="#F2F2F2"/>
<path d="M357.618 62.4773L356.83 61.4354L377.44 45.8871C373.826 46.0001 362.251 46.7574 356.238 51.8027C349.054 57.8302 349.054 63.5541 352.535 67.6943C356.016 71.8345 361.66 72.8231 368.844 66.7956C374.933 61.6865 377.673 50.2048 378.366 46.8241L357.618 62.4773Z" fill="#F2F2F2"/>
<path d="M308.956 212.155L308.389 211.405L323.216 200.219C320.616 200.301 312.289 200.846 307.963 204.475C302.795 208.812 302.794 212.93 305.299 215.908C307.803 218.887 311.863 219.598 317.032 215.262C321.413 211.586 323.384 203.326 323.883 200.893L308.956 212.155Z" fill="#F2F2F2"/>
<path d="M191.58 34.1025C195.597 23.3129 205.088 13.9899 216.558 12.8809C209.662 23.3338 206.69 35.8865 208.167 48.3179C208.754 53.1101 209.906 58.3792 207.32 62.4579C205.711 64.9958 202.875 66.5582 199.952 67.2633C197.029 67.9683 193.983 67.9137 190.976 67.8551L190.303 68.1871C188.188 56.8708 187.562 44.8922 191.58 34.1025Z" fill="#F0F0F0"/>
<path d="M216.614 13.116C208.795 18.573 202.895 26.3524 199.754 35.3493C199.043 37.2742 198.641 39.2989 198.561 41.3489C198.548 43.3484 199.072 45.3149 200.077 47.044C200.982 48.6751 202.096 50.2388 202.589 52.0611C202.827 52.9977 202.864 53.974 202.698 54.9259C202.532 55.8778 202.166 56.7839 201.625 57.5848C200.328 59.6154 198.378 61.0594 196.423 62.4053C194.251 63.8997 191.972 65.4176 190.643 67.7652C190.482 68.0497 190.05 67.7835 190.21 67.4995C192.522 63.415 197.374 61.9314 200.342 58.4619C201.727 56.843 202.631 54.7974 202.203 52.6417C201.829 50.7566 200.681 49.1431 199.75 47.4996C198.745 45.8271 198.165 43.9342 198.061 41.9862C198.035 39.9387 198.359 37.9018 199.018 35.9629C200.432 31.574 202.527 27.4345 205.228 23.6959C208.287 19.412 212.057 15.6824 216.375 12.6684C216.642 12.482 216.88 12.9308 216.614 13.116V13.116Z" fill="white"/>
<path d="M200.595 32.3929C199.155 31.6615 198.023 30.4427 197.4 28.9542C196.777 27.4658 196.704 25.8046 197.194 24.2673C197.294 23.9565 197.782 24.0975 197.682 24.4086C197.223 25.8393 197.291 27.3867 197.874 28.7716C198.457 30.1565 199.516 31.2875 200.861 31.9607C201.153 32.1073 200.885 32.5387 200.595 32.3929Z" fill="white"/>
<path d="M199.509 46.2774C202.657 45.2841 205.315 43.142 206.952 40.2782C207.114 39.9943 207.547 40.2604 207.385 40.5439C205.676 43.5209 202.905 45.7445 199.627 46.7709C199.314 46.8685 199.198 46.3745 199.509 46.2774Z" fill="white"/>
<path d="M208.635 19.9881C209.133 20.3871 209.722 20.6562 210.35 20.7714C210.978 20.8866 211.624 20.8442 212.232 20.648C212.543 20.5465 212.659 21.0407 212.349 21.1416C211.677 21.3552 210.963 21.4011 210.269 21.2754C209.575 21.1497 208.923 20.8561 208.369 20.4203C208.313 20.3836 208.273 20.3271 208.258 20.2623C208.242 20.1975 208.252 20.1292 208.285 20.0714C208.321 20.0143 208.377 19.9736 208.443 19.958C208.508 19.9424 208.577 19.9532 208.635 19.9881Z" fill="white"/>
<path d="M244.206 40.3838C244.013 40.4528 243.821 40.5217 243.627 40.5947C241.044 41.5346 238.542 42.6826 236.145 44.0273C235.958 44.1283 235.77 44.2335 235.586 44.3397C229.846 47.6408 224.77 51.9779 220.615 57.1303C218.963 59.1821 217.47 61.3564 216.149 63.6345C214.324 66.7807 212.597 70.3369 209.917 72.6298C209.64 72.8721 209.349 73.0971 209.044 73.3034L190.761 68.9816C190.724 68.951 190.686 68.9244 190.65 68.8937L189.912 68.7545C189.972 68.6323 190.036 68.5068 190.096 68.3845C190.131 68.3135 190.169 68.2434 190.204 68.1723C190.228 68.1253 190.252 68.0782 190.272 68.0344C190.28 68.0187 190.288 68.0031 190.295 67.9915C190.314 67.9476 190.337 67.9089 190.355 67.8692C190.715 67.1667 191.081 66.4655 191.452 65.7656C191.453 65.7615 191.453 65.7615 191.458 65.7583C194.237 60.3982 197.642 55.3863 201.602 50.8276C201.722 50.6932 201.843 50.5546 201.972 50.4221C203.78 48.4173 205.75 46.5636 207.861 44.8794C209.02 43.9609 210.225 43.1016 211.471 42.3048C214.694 40.2522 218.221 38.7188 221.921 37.7609C229.298 35.8523 237.203 36.3218 243.711 40.091C243.878 40.1875 244.04 40.2831 244.206 40.3838Z" fill="#F0F0F0"/>
<path d="M244.109 40.606C234.577 40.2602 225.178 42.9236 217.248 48.2178C215.52 49.3273 213.978 50.7018 212.679 52.2908C211.464 53.8795 210.697 55.7644 210.457 57.7496C210.197 59.5961 210.144 61.515 209.439 63.2661C209.064 64.1571 208.506 64.9589 207.799 65.6191C207.093 66.2793 206.255 66.7828 205.34 67.0967C203.081 67.9382 200.654 67.9185 198.281 67.8169C195.647 67.704 192.912 67.5452 190.436 68.6205C190.136 68.7508 189.951 68.2782 190.251 68.1481C194.558 66.2772 199.326 68.0105 203.787 67.0254C205.868 66.5657 207.824 65.4766 208.781 63.4979C209.618 61.7676 209.674 59.7888 209.922 57.9169C210.127 55.9769 210.805 54.1166 211.896 52.4985C213.109 50.8485 214.596 49.4169 216.29 48.2651C220.064 45.611 224.232 43.5662 228.642 42.2056C233.666 40.6248 238.924 39.9142 244.188 40.1046C244.514 40.1165 244.433 40.6178 244.11 40.6059L244.109 40.606Z" fill="white"/>
<path d="M219.701 46.3629C218.992 44.9131 218.823 43.259 219.222 41.6958C219.622 40.1326 220.565 38.7623 221.883 37.8295C222.15 37.6416 222.455 38.0477 222.187 38.2358C220.958 39.1022 220.08 40.3787 219.711 41.8351C219.342 43.2915 219.506 44.8317 220.174 46.1778C220.319 46.4705 219.845 46.6539 219.701 46.3629Z" fill="white"/>
<path d="M210.466 56.796C213.578 57.8963 216.991 57.7844 220.025 56.4826C220.325 56.3534 220.51 56.8259 220.21 56.955C217.051 58.3038 213.499 58.413 210.262 57.2609C209.954 57.1509 210.159 56.6865 210.466 56.796Z" fill="white"/>
<path d="M233.597 41.2939C233.754 41.912 234.062 42.4813 234.494 42.9509C234.926 43.4204 235.468 43.7755 236.071 43.9841C236.381 44.0902 236.175 44.5544 235.868 44.4491C235.202 44.2154 234.604 43.8226 234.126 43.3048C233.648 42.7871 233.304 42.1602 233.124 41.479C233.102 41.4162 233.104 41.3473 233.131 41.2862C233.157 41.2252 233.206 41.1766 233.268 41.1503C233.33 41.1261 233.4 41.1276 233.462 41.1545C233.523 41.1814 233.572 41.2315 233.597 41.2939H233.597Z" fill="white"/>
<path d="M136.046 182.908C140.063 172.118 149.554 162.795 161.024 161.686C154.128 172.139 151.156 184.692 152.633 197.123C153.22 201.915 154.372 207.184 151.786 211.263C150.177 213.801 147.341 215.363 144.418 216.069C141.495 216.774 138.449 216.719 135.442 216.66L134.769 216.992C132.654 205.676 132.028 193.697 136.046 182.908Z" fill="#F0F0F0"/>
<path d="M161.08 161.921C153.261 167.378 147.361 175.158 144.22 184.155C143.509 186.079 143.107 188.104 143.027 190.154C143.014 192.154 143.538 194.12 144.543 195.849C145.448 197.48 146.562 199.044 147.055 200.866C147.293 201.803 147.33 202.779 147.164 203.731C146.998 204.683 146.632 205.589 146.091 206.39C144.794 208.421 142.844 209.865 140.889 211.211C138.717 212.705 136.438 214.223 135.109 216.57C134.948 216.855 134.516 216.589 134.676 216.305C136.988 212.22 141.84 210.737 144.808 207.267C146.192 205.648 147.097 203.603 146.669 201.447C146.295 199.562 145.147 197.948 144.216 196.305C143.211 194.632 142.631 192.739 142.527 190.791C142.501 188.744 142.825 186.707 143.484 184.768C144.898 180.379 146.993 176.24 149.694 172.501C152.753 168.217 156.523 164.488 160.841 161.474C161.108 161.287 161.345 161.736 161.08 161.921V161.921Z" fill="white"/>
<path d="M145.061 181.198C143.621 180.467 142.489 179.248 141.866 177.76C141.243 176.271 141.17 174.61 141.66 173.073C141.76 172.762 142.248 172.903 142.147 173.214C141.689 174.645 141.757 176.192 142.34 177.577C142.923 178.962 143.982 180.093 145.327 180.766C145.619 180.913 145.351 181.344 145.061 181.198Z" fill="white"/>
<path d="M143.975 195.083C147.123 194.089 149.781 191.947 151.418 189.083C151.58 188.8 152.013 189.066 151.851 189.349C150.142 192.326 147.371 194.55 144.093 195.576C143.78 195.674 143.664 195.18 143.975 195.083Z" fill="white"/>
<path d="M153.101 168.793C153.599 169.192 154.188 169.461 154.816 169.577C155.444 169.692 156.09 169.649 156.698 169.453C157.009 169.352 157.125 169.846 156.815 169.947C156.143 170.16 155.429 170.206 154.735 170.081C154.041 169.955 153.389 169.661 152.835 169.226C152.779 169.189 152.739 169.132 152.724 169.068C152.708 169.003 152.718 168.934 152.751 168.877C152.787 168.82 152.843 168.779 152.909 168.763C152.974 168.748 153.043 168.758 153.101 168.793Z" fill="white"/>
<path d="M188.671 189.189C188.479 189.258 188.287 189.327 188.093 189.4C185.51 190.34 183.008 191.488 180.611 192.833C180.424 192.934 180.236 193.039 180.052 193.145C174.312 196.446 169.236 200.783 165.081 205.936C163.429 207.987 161.936 210.162 160.615 212.44C158.79 215.586 157.063 219.142 154.383 221.435C154.106 221.677 153.815 221.902 153.51 222.109L135.227 217.787C135.19 217.756 135.152 217.73 135.115 217.699L134.378 217.56C134.437 217.438 134.502 217.312 134.562 217.19C134.597 217.119 134.635 217.049 134.67 216.978C134.694 216.931 134.718 216.883 134.738 216.84C134.746 216.824 134.754 216.808 134.761 216.797C134.78 216.753 134.803 216.714 134.821 216.675C135.181 215.972 135.547 215.271 135.918 214.571C135.919 214.567 135.919 214.567 135.924 214.564C138.703 209.203 142.108 204.192 146.068 199.633C146.188 199.498 146.309 199.36 146.438 199.227C148.246 197.223 150.216 195.369 152.327 193.685C153.486 192.766 154.691 191.907 155.937 191.11C159.16 189.057 162.687 187.524 166.387 186.566C173.764 184.658 181.669 185.127 188.177 188.896C188.344 188.993 188.506 189.088 188.671 189.189Z" fill="#F0F0F0"/>
<path d="M188.575 189.411C179.043 189.065 169.644 191.729 161.714 197.023C159.986 198.132 158.444 199.507 157.145 201.096C155.93 202.685 155.163 204.57 154.923 206.555C154.663 208.401 154.61 210.32 153.905 212.071C153.53 212.962 152.972 213.764 152.265 214.424C151.559 215.085 150.721 215.588 149.806 215.902C147.547 216.743 145.12 216.724 142.747 216.622C140.112 216.509 137.378 216.35 134.902 217.426C134.602 217.556 134.417 217.083 134.717 216.953C139.024 215.082 143.792 216.816 148.253 215.831C150.334 215.371 152.29 214.282 153.247 212.303C154.084 210.573 154.14 208.594 154.388 206.722C154.593 204.782 155.271 202.922 156.362 201.304C157.575 199.654 159.062 198.222 160.756 197.07C164.53 194.416 168.698 192.371 173.108 191.011C178.132 189.43 183.39 188.719 188.654 188.91C188.98 188.922 188.899 189.423 188.576 189.411L188.575 189.411Z" fill="white"/>
<path d="M164.167 195.168C163.458 193.718 163.289 192.064 163.688 190.501C164.088 188.938 165.031 187.568 166.349 186.635C166.616 186.447 166.921 186.853 166.653 187.041C165.424 187.907 164.546 189.184 164.177 190.64C163.808 192.097 163.972 193.637 164.64 194.983C164.784 195.276 164.311 195.459 164.167 195.168Z" fill="white"/>
<path d="M154.932 205.601C158.044 206.702 161.457 206.59 164.491 205.288C164.791 205.159 164.976 205.631 164.676 205.76C161.517 207.109 157.965 207.218 154.728 206.066C154.42 205.956 154.625 205.492 154.932 205.601Z" fill="white"/>
<path d="M178.063 190.099C178.22 190.717 178.528 191.287 178.96 191.756C179.392 192.226 179.934 192.581 180.537 192.789C180.847 192.895 180.641 193.36 180.334 193.254C179.668 193.021 179.07 192.628 178.592 192.11C178.114 191.592 177.77 190.965 177.59 190.284C177.567 190.221 177.57 190.153 177.597 190.091C177.623 190.03 177.672 189.982 177.734 189.956C177.796 189.931 177.866 189.933 177.928 189.96C177.989 189.987 178.038 190.037 178.063 190.099H178.063Z" fill="white"/>
<path d="M363.633 263.781C361.583 256.125 363.191 247.113 369.187 241.924C369.487 250.537 372.827 258.766 378.616 265.156C380.858 267.613 383.607 270.111 383.783 273.431C383.793 275.522 382.999 277.538 381.564 279.062C380.137 280.563 378.523 281.876 376.762 282.968L376.517 283.422C370.814 277.912 365.684 271.437 363.633 263.781Z" fill="#F0F0F0"/>
<path d="M369.312 242.033C367.1 248.21 366.893 254.926 368.719 261.227C369.088 262.59 369.67 263.887 370.444 265.069C371.234 266.197 372.313 267.092 373.567 267.662C374.774 268.128 375.919 268.737 376.979 269.479C377.486 269.91 377.896 270.443 378.183 271.043C378.469 271.644 378.626 272.298 378.641 272.963C378.633 274.606 378.294 276.231 377.645 277.74C377.022 279.444 376.348 281.203 376.539 283.05C376.562 283.274 376.213 283.296 376.19 283.073C375.858 279.86 377.99 277.095 378.271 273.966C378.378 273.245 378.319 272.509 378.098 271.814C377.876 271.119 377.499 270.484 376.994 269.958C376.032 269.049 374.743 268.6 373.565 268.048C372.334 267.51 371.253 266.678 370.417 265.626C369.586 264.487 368.955 263.215 368.551 261.864C367.593 258.838 367.118 255.68 367.143 252.506C367.15 248.883 367.778 245.289 368.999 241.878C369.075 241.666 369.387 241.824 369.312 242.033L369.312 242.033Z" fill="white"/>
<path d="M368.012 259.232C366.912 259.395 365.79 259.162 364.846 258.574C363.903 257.987 363.199 257.083 362.86 256.025C362.793 255.811 363.123 255.696 363.191 255.91C363.504 256.896 364.16 257.738 365.04 258.283C365.919 258.828 366.965 259.041 367.989 258.884C368.211 258.85 368.233 259.198 368.012 259.232Z" fill="white"/>
<path d="M372.942 267.458C374.313 265.647 374.95 263.387 374.727 261.127C374.704 260.903 375.053 260.88 375.076 261.104C375.304 263.456 374.636 265.807 373.205 267.688C373.069 267.867 372.806 267.636 372.942 267.458Z" fill="white"/>
<path d="M367.575 249.068C368.014 249.094 368.452 249.01 368.851 248.825C369.249 248.639 369.595 248.358 369.858 248.006C369.992 247.825 370.254 248.057 370.121 248.236C369.829 248.624 369.446 248.934 369.006 249.14C368.567 249.345 368.083 249.44 367.598 249.416C367.553 249.418 367.508 249.402 367.473 249.372C367.439 249.342 367.417 249.299 367.412 249.254C367.41 249.208 367.425 249.162 367.456 249.127C367.486 249.093 367.529 249.071 367.575 249.068Z" fill="white"/>
<path d="M395.68 246.354C395.599 246.469 395.519 246.584 395.439 246.702C394.364 248.258 393.418 249.899 392.609 251.608C392.544 251.739 392.481 251.873 392.42 252.006C390.515 256.144 389.396 260.6 389.12 265.147C389.011 266.956 389.041 268.771 389.208 270.576C389.439 273.068 389.888 275.752 389.299 278.106C389.24 278.353 389.167 278.595 389.078 278.832L377.091 283.686C377.058 283.683 377.026 283.683 376.993 283.681L376.523 283.897C376.508 283.804 376.495 283.708 376.479 283.615C376.47 283.562 376.464 283.507 376.455 283.453C376.45 283.417 376.445 283.381 376.438 283.349C376.436 283.337 376.435 283.325 376.434 283.316C376.427 283.283 376.425 283.253 376.419 283.223C376.341 282.685 376.266 282.146 376.196 281.605C376.194 281.603 376.194 281.603 376.196 281.599C375.617 277.484 375.529 273.315 375.933 269.179C375.947 269.056 375.959 268.93 375.978 268.804C376.194 266.959 376.56 265.134 377.073 263.348C377.357 262.371 377.69 261.409 378.072 260.466C379.062 258.03 380.43 255.765 382.125 253.754C385.504 249.746 390.129 246.861 395.286 246.386C395.417 246.374 395.547 246.363 395.68 246.354Z" fill="#F0F0F0"/>
<path d="M395.715 246.516C390.226 250.118 386.013 255.355 383.674 261.485C383.147 262.795 382.83 264.181 382.734 265.59C382.686 266.965 383.007 268.329 383.665 269.539C384.348 270.636 384.895 271.812 385.294 273.041C385.44 273.69 385.446 274.362 385.313 275.014C385.18 275.666 384.91 276.282 384.522 276.823C383.525 278.13 382.275 279.223 380.847 280.038C379.323 281.023 377.725 282.023 376.764 283.612C376.648 283.805 376.355 283.613 376.472 283.421C378.143 280.656 381.511 279.73 383.622 277.401C384.142 276.89 384.538 276.266 384.78 275.579C385.022 274.891 385.104 274.157 385.018 273.433C384.797 272.128 384.039 270.995 383.431 269.846C382.772 268.675 382.411 267.361 382.377 266.018C382.4 264.609 382.663 263.214 383.155 261.892C384.214 258.9 385.738 256.093 387.671 253.573C389.86 250.685 392.528 248.193 395.559 246.204C395.746 246.081 395.901 246.394 395.715 246.516L395.715 246.516Z" fill="white"/>
<path d="M384.311 259.467C383.334 258.935 382.579 258.074 382.18 257.037C381.78 256.001 381.763 254.856 382.13 253.808C382.205 253.596 382.539 253.703 382.463 253.915C382.119 254.89 382.136 255.957 382.51 256.921C382.883 257.886 383.59 258.685 384.502 259.174C384.7 259.281 384.507 259.573 384.311 259.467Z" fill="white"/>
<path d="M383.289 269C385.475 268.378 387.347 266.957 388.53 265.018C388.647 264.826 388.939 265.018 388.822 265.21C387.587 267.224 385.637 268.7 383.361 269.342C383.144 269.403 383.074 269.061 383.289 269V269Z" fill="white"/>
<path d="M390.088 251.089C390.423 251.373 390.823 251.57 391.253 251.661C391.683 251.753 392.128 251.736 392.55 251.613C392.766 251.55 392.836 251.892 392.622 251.955C392.155 252.089 391.663 252.107 391.188 252.007C390.712 251.906 390.269 251.691 389.896 251.381C389.859 251.354 389.833 251.315 389.823 251.27C389.814 251.225 389.822 251.178 389.846 251.139C389.872 251.1 389.911 251.073 389.957 251.064C390.002 251.055 390.049 251.063 390.088 251.089Z" fill="white"/>
</g>
<defs>
<clipPath id="clip0_103_2607">
<rect width="425" height="456" fill="white"/>
</clipPath>
</defs>
</svg>
