<svg width="136" height="172" viewBox="0 0 136 172" fill="none" xmlns="http://www.w3.org/2000/svg">
<path d="M124.083 172H11.3914C8.37122 171.997 5.47576 170.795 3.34021 168.66C1.20466 166.524 0.0034094 163.629 0 160.609V11.3914C0.00340805 8.3713 1.20467 5.47583 3.34023 3.34026C5.47578 1.20469 8.37123 0.00342445 11.3914 0H124.083C127.104 0.00341762 129.999 1.20467 132.135 3.34024C134.27 5.47581 135.471 8.37129 135.475 11.3914V160.609C135.471 163.629 134.27 166.524 132.135 168.66C129.999 170.795 127.104 171.997 124.083 172Z" fill="#E6E6E6"/>
<path d="M81.0725 162.764H19.3131C16.5631 162.761 13.9267 161.667 11.9823 159.722C10.0378 157.778 8.94401 155.141 8.94092 152.391V19.6085C8.94402 16.8586 10.0378 14.2222 11.9823 12.2777C13.9268 10.3332 16.5632 9.23943 19.3131 9.23633H116.162C118.912 9.23943 121.549 10.3332 123.493 12.2777C125.438 14.2222 126.531 16.8586 126.535 19.6085V117.302C126.521 129.355 121.727 140.91 113.204 149.433C104.681 157.956 93.1256 162.75 81.0725 162.764Z" fill="white"/>
<path d="M106.5 34.7282H28.9739C28.6416 34.7287 28.3124 34.6636 28.0052 34.5368C27.698 34.4099 27.4189 34.2238 27.1837 33.9889C26.9486 33.7541 26.762 33.4752 26.6347 33.1682C26.5074 32.8612 26.4419 32.5322 26.4419 32.1998C26.4419 31.8675 26.5074 31.5384 26.6347 31.2314C26.762 30.9244 26.9486 30.6455 27.1837 30.4107C27.4189 30.1759 27.698 29.9897 28.0052 29.8628C28.3124 29.736 28.6416 29.671 28.9739 29.6714H106.5C106.833 29.671 107.162 29.736 107.469 29.8628C107.776 29.9897 108.055 30.1759 108.291 30.4107C108.526 30.6455 108.712 30.9244 108.84 31.2314C108.967 31.5384 109.032 31.8675 109.032 32.1998C109.032 32.5322 108.967 32.8612 108.84 33.1682C108.712 33.4752 108.526 33.7541 108.291 33.9889C108.055 34.2238 107.776 34.4099 107.469 34.5368C107.162 34.6636 106.833 34.7287 106.5 34.7282Z" fill="#436280"/>
<path d="M106.501 44.7192H28.9743C28.3037 44.7192 27.6606 44.4528 27.1864 43.9786C26.7122 43.5044 26.4458 42.8613 26.4458 42.1906C26.4458 41.52 26.7122 40.8769 27.1864 40.4027C27.6606 39.9285 28.3037 39.6621 28.9743 39.6621H106.501C107.171 39.6621 107.815 39.9285 108.289 40.4027C108.763 40.8769 109.029 41.52 109.029 42.1906C109.029 42.8613 108.763 43.5044 108.289 43.9786C107.815 44.4528 107.171 44.7192 106.501 44.7192Z" fill="#436280"/>
<path d="M62.5802 54.7101H28.9743C28.3037 54.7101 27.6606 54.4437 27.1864 53.9695C26.7122 53.4954 26.4458 52.8522 26.4458 52.1816C26.4458 51.511 26.7122 50.8679 27.1864 50.3937C27.6606 49.9195 28.3037 49.6531 28.9743 49.6531H62.5802C63.2508 49.6531 63.894 49.9195 64.3682 50.3937C64.8423 50.8679 65.1087 51.511 65.1087 52.1816C65.1087 52.8522 64.8423 53.4954 64.3682 53.9695C63.894 54.4437 63.2508 54.7101 62.5802 54.7101Z" fill="#436280"/>
<path d="M106.5 75.6349H28.9739C28.6416 75.6354 28.3124 75.5703 28.0052 75.4435C27.698 75.3166 27.4189 75.1305 27.1837 74.8956C26.9486 74.6608 26.762 74.3819 26.6347 74.0749C26.5074 73.7679 26.4419 73.4389 26.4419 73.1065C26.4419 72.7742 26.5074 72.4451 26.6347 72.1381C26.762 71.8311 26.9486 71.5522 27.1837 71.3174C27.4189 71.0826 27.698 70.8964 28.0052 70.7696C28.3124 70.6427 28.6416 70.5777 28.9739 70.5781H106.5C106.833 70.5777 107.162 70.6427 107.469 70.7696C107.776 70.8964 108.055 71.0826 108.291 71.3174C108.526 71.5522 108.712 71.8311 108.84 72.1381C108.967 72.4451 109.032 72.7742 109.032 73.1065C109.032 73.4389 108.967 73.7679 108.84 74.0749C108.712 74.3819 108.526 74.6608 108.291 74.8956C108.055 75.1305 107.776 75.3166 107.469 75.4435C107.162 75.5703 106.833 75.6354 106.5 75.6349Z" fill="#E4E4E4"/>
<path d="M106.501 85.6259H28.9743C28.3037 85.6259 27.6606 85.3595 27.1864 84.8853C26.7122 84.4111 26.4458 83.7679 26.4458 83.0973C26.4458 82.4267 26.7122 81.7836 27.1864 81.3094C27.6606 80.8352 28.3037 80.5688 28.9743 80.5688H106.501C107.171 80.5688 107.815 80.8352 108.289 81.3094C108.763 81.7836 109.029 82.4267 109.029 83.0973C109.029 83.7679 108.763 84.4111 108.289 84.8853C107.815 85.3595 107.171 85.6259 106.501 85.6259Z" fill="#E4E4E4"/>
<path d="M62.5802 95.6168H28.9743C28.3037 95.6168 27.6606 95.3504 27.1864 94.8762C26.7122 94.402 26.4458 93.7589 26.4458 93.0883C26.4458 92.4177 26.7122 91.7745 27.1864 91.3003C27.6606 90.8262 28.3037 90.5598 28.9743 90.5598H62.5802C63.2508 90.5598 63.894 90.8262 64.3682 91.3003C64.8423 91.7745 65.1087 92.4177 65.1087 93.0883C65.1087 93.7589 64.8423 94.402 64.3682 94.8762C63.894 95.3504 63.2508 95.6168 62.5802 95.6168Z" fill="#E4E4E4"/>
<path d="M106.5 116.542H28.9739C28.6416 116.542 28.3124 116.477 28.0052 116.35C27.698 116.223 27.4189 116.037 27.1837 115.802C26.9486 115.567 26.762 115.289 26.6347 114.982C26.5074 114.675 26.4419 114.346 26.4419 114.013C26.4419 113.681 26.5074 113.352 26.6347 113.045C26.762 112.738 26.9486 112.459 27.1837 112.224C27.4189 111.989 27.698 111.803 28.0052 111.676C28.3124 111.549 28.6416 111.484 28.9739 111.485H106.5C106.833 111.484 107.162 111.549 107.469 111.676C107.776 111.803 108.055 111.989 108.291 112.224C108.526 112.459 108.712 112.738 108.84 113.045C108.967 113.352 109.032 113.681 109.032 114.013C109.032 114.346 108.967 114.675 108.84 114.982C108.712 115.289 108.526 115.567 108.291 115.802C108.055 116.037 107.776 116.223 107.469 116.35C107.162 116.477 106.833 116.542 106.5 116.542Z" fill="#E4E4E4"/>
<path d="M106.501 126.533H28.9743C28.3037 126.533 27.6606 126.266 27.1864 125.792C26.7122 125.318 26.4458 124.675 26.4458 124.004C26.4458 123.333 26.7122 122.69 27.1864 122.216C27.6606 121.742 28.3037 121.475 28.9743 121.475H106.501C107.171 121.475 107.815 121.742 108.289 122.216C108.763 122.69 109.029 123.333 109.029 124.004C109.029 124.675 108.763 125.318 108.289 125.792C107.815 126.266 107.171 126.533 106.501 126.533Z" fill="#E4E4E4"/>
<path d="M62.58 136.523H28.9741C28.3042 136.523 27.6619 136.256 27.1885 135.782C26.7151 135.308 26.4492 134.665 26.4492 133.995C26.4492 133.325 26.7151 132.682 27.1885 132.208C27.6619 131.734 28.3042 131.467 28.9741 131.466H62.58C63.25 131.467 63.8922 131.734 64.3656 132.208C64.839 132.682 65.1049 133.325 65.1049 133.995C65.1049 134.665 64.839 135.308 64.3656 135.782C63.8922 136.256 63.25 136.523 62.58 136.523Z" fill="#E4E4E4"/>
</svg>
