<svg width="568" height="529" viewBox="0 0 568 529" fill="none" xmlns="http://www.w3.org/2000/svg">
<g clip-path="url(#clip0_261_4490)">
<path d="M290.761 523.389C288 523.389 285.211 523.346 282.473 523.26L282.535 521.272C286.466 521.395 290.478 521.428 294.428 521.374L294.455 523.364C293.226 523.381 291.994 523.389 290.761 523.389ZM306.431 522.928L306.314 520.942C310.252 520.709 314.239 520.383 318.167 519.972L318.375 521.95C314.417 522.365 310.399 522.695 306.431 522.928V522.928ZM270.508 522.618C266.537 522.314 262.525 521.915 258.582 521.431L258.825 519.457C262.738 519.936 266.719 520.332 270.659 520.634L270.508 522.618ZM330.26 520.43L329.962 518.463C333.874 517.869 337.816 517.18 341.675 516.413L342.063 518.365C338.174 519.137 334.202 519.832 330.26 520.43ZM246.726 519.702C242.804 519.037 238.844 518.273 234.959 517.43L235.381 515.485C239.237 516.322 243.166 517.08 247.058 517.739L246.726 519.702ZM353.761 515.759L353.283 513.828C357.123 512.878 360.984 511.829 364.76 510.709L365.326 512.618C361.521 513.746 357.63 514.803 353.761 515.759ZM223.31 514.619C219.463 513.595 215.591 512.47 211.803 511.272L212.402 509.375C216.162 510.564 220.004 511.68 223.821 512.695L223.31 514.619ZM376.733 508.946L376.08 507.066C379.806 505.771 383.554 504.371 387.221 502.904L387.959 504.752C384.265 506.23 380.488 507.641 376.733 508.946L376.733 508.946ZM200.432 507.387C196.696 506.014 192.936 504.532 189.258 502.983L190.031 501.149C193.68 502.686 197.411 504.156 201.119 505.519L200.432 507.387ZM398.955 500.056L398.131 498.244C401.71 496.619 405.307 494.883 408.822 493.086L409.728 494.859C406.185 496.669 402.561 498.417 398.955 500.056ZM178.303 498.071C174.711 496.36 171.106 494.54 167.588 492.661L168.526 490.906C172.017 492.771 175.594 494.577 179.159 496.276L178.303 498.071ZM420.252 489.171L419.266 487.444C422.698 485.486 426.124 483.428 429.447 481.326L430.51 483.007C427.162 485.125 423.711 487.2 420.252 489.171ZM157.137 486.765C153.721 484.734 150.3 482.591 146.969 480.398L148.065 478.736C151.369 480.913 154.764 483.039 158.155 485.055L157.137 486.765ZM440.478 476.378L439.339 474.747C442.571 472.49 445.795 470.126 448.924 467.722L450.137 469.3C446.985 471.722 443.735 474.104 440.478 476.378ZM137.107 473.575C133.894 471.242 130.685 468.798 127.567 466.31L128.809 464.755C131.903 467.224 135.088 469.65 138.276 471.964L137.107 473.575ZM459.464 461.788L458.181 460.267C461.193 457.726 464.191 455.078 467.092 452.396L468.443 453.857C465.52 456.56 462.499 459.228 459.464 461.788ZM118.371 458.619C115.379 455.999 112.407 453.274 109.537 450.519L110.915 449.083C113.763 451.818 116.713 454.522 119.682 457.122L118.371 458.619ZM477.053 445.523L475.636 444.126C478.412 441.312 481.159 438.401 483.798 435.473L485.277 436.805C482.618 439.756 479.851 442.688 477.053 445.523V445.523ZM101.082 442.029C98.3368 439.143 95.6257 436.159 93.0239 433.163L94.5274 431.859C97.1093 434.833 99.7995 437.793 102.524 440.657L101.082 442.029ZM493.096 427.72L491.558 426.457C494.067 423.405 496.537 420.255 498.901 417.094L500.495 418.286C498.113 421.471 495.624 424.646 493.096 427.72ZM85.3794 423.942C82.9142 420.828 80.4868 417.612 78.1645 414.385L79.7797 413.223C82.0846 416.425 84.4935 419.616 86.9403 422.708L85.3794 423.942ZM507.456 408.522L505.809 407.405C508.029 404.137 510.203 400.774 512.271 397.407L513.968 398.448C511.883 401.84 509.692 405.23 507.456 408.522ZM71.3951 404.513C69.2263 401.188 67.1036 397.768 65.0855 394.344L66.7999 393.333C68.803 396.731 70.9097 400.126 73.0619 403.424L71.3951 404.513ZM520.011 388.084L518.269 387.122C520.18 383.664 522.036 380.114 523.789 376.568L525.573 377.45C523.808 381.022 521.936 384.6 520.011 388.084ZM59.2488 383.9C57.3924 380.392 55.5925 376.792 53.8989 373.203L55.6989 372.354C57.3798 375.916 59.1657 379.488 61.0079 382.969L59.2488 383.9ZM530.641 366.57L528.817 365.771C530.403 362.15 531.926 358.441 533.344 354.748L535.203 355.461C533.774 359.183 532.238 362.92 530.641 366.57V366.57ZM49.0466 362.276C47.5207 358.615 46.0595 354.869 44.7037 351.141L46.5746 350.461C47.9197 354.16 49.3698 357.877 50.8835 361.51L49.0466 362.276ZM539.248 344.151L537.358 343.525C538.6 339.783 539.773 335.958 540.842 332.156L542.758 332.694C541.68 336.526 540.499 340.38 539.248 344.151L539.248 344.151ZM40.8695 339.789C39.6852 335.997 38.5724 332.123 37.5621 328.273L39.4874 327.767C40.4899 331.588 41.5945 335.433 42.7695 339.197L40.8695 339.789ZM545.735 321.088L543.796 320.637C544.688 316.802 545.502 312.885 546.218 308.997L548.176 309.356C547.455 313.275 546.633 317.221 545.735 321.088L545.735 321.088ZM34.7901 316.616C33.9601 312.729 33.2089 308.769 32.5577 304.845L34.5209 304.518C35.1677 308.414 35.9132 312.343 36.7369 316.2L34.7901 316.616ZM550.073 297.528L548.1 297.258C548.635 293.36 549.087 289.386 549.444 285.444L551.427 285.623C551.067 289.596 550.611 293.6 550.073 297.528L550.073 297.528ZM30.8675 292.984C30.3981 289.045 30.0127 285.032 29.7217 281.059L31.7072 280.913C31.9954 284.857 32.3784 288.839 32.8444 292.749L30.8675 292.984ZM552.237 273.671L550.249 273.582C550.425 269.638 550.516 265.639 550.516 261.695H552.506C552.506 265.669 552.416 269.699 552.237 273.671L552.237 273.671ZM29.1186 269.092C29.0506 266.652 29.0161 264.163 29.0156 261.695C29.0156 260.163 29.0287 258.635 29.055 257.109L31.0454 257.144C31.0192 258.658 31.0061 260.175 31.0061 261.695C31.0066 264.144 31.0411 266.615 31.1081 269.038L29.1186 269.092ZM550.501 258.918C550.46 254.973 550.328 250.974 550.11 247.031L552.096 246.921C552.317 250.893 552.45 254.922 552.492 258.897L550.501 258.918ZM31.5179 245.263L29.5314 245.139C29.7797 241.163 30.1227 237.147 30.5499 233.202L32.5287 233.416C32.1045 237.331 31.7648 241.317 31.5179 245.263ZM549.179 235.179C548.781 231.256 548.286 227.286 547.709 223.38L549.678 223.089C550.259 227.025 550.758 231.025 551.159 234.978L549.179 235.179ZM34.0784 221.628L32.1112 221.324C32.7211 217.387 33.4296 213.419 34.2173 209.529L36.1679 209.924C35.3866 213.784 34.6834 217.722 34.0784 221.628ZM545.7 211.663C544.941 207.781 544.085 203.873 543.154 200.048L545.088 199.578C546.026 203.432 546.889 207.369 547.654 211.281L545.7 211.663ZM38.7931 198.328L36.8624 197.844C37.829 193.99 38.8995 190.103 40.0444 186.292L41.9503 186.864C40.8147 190.646 39.7523 194.503 38.7931 198.328ZM540.075 188.563C538.965 184.774 537.752 180.962 536.47 177.233L538.352 176.586C539.644 180.344 540.867 184.185 541.986 188.003L540.075 188.563ZM45.6451 175.528L43.7674 174.868C45.0902 171.106 46.5184 167.326 48.0122 163.633L49.8579 164.379C48.3752 168.044 46.9576 171.795 45.6451 175.528H45.6451ZM532.345 166.08C530.893 162.418 529.338 158.742 527.723 155.155L529.539 154.338C531.167 157.953 532.733 161.657 534.196 165.347L532.345 166.08ZM54.5787 153.441L52.77 152.61C54.4325 148.99 56.2018 145.36 58.029 141.821L59.7979 142.734C57.9843 146.246 56.2286 149.848 54.5787 153.441ZM522.604 144.45C520.822 140.937 518.935 137.416 516.994 133.987L518.726 133.007C520.682 136.462 522.583 140.01 524.379 143.55L522.604 144.45ZM65.5034 132.281L63.7783 131.288C65.7639 127.841 67.8578 124.39 70.0023 121.033L71.6799 122.104C69.5519 125.436 67.4735 128.86 65.5035 132.281H65.5034ZM510.91 123.788C508.807 120.441 506.604 117.106 504.364 113.876L505.999 112.742C508.257 115.997 510.476 119.357 512.595 122.73L510.91 123.788ZM78.3151 112.222L76.6881 111.076C78.9828 107.822 81.3819 104.579 83.8204 101.436L85.393 102.656C82.9734 105.775 80.5918 108.993 78.3151 112.222ZM497.37 104.27C494.972 101.129 492.474 98.0063 489.944 94.9891L491.47 93.7108C494.018 96.7513 496.536 99.8973 498.953 103.062L497.37 104.27ZM92.8985 93.4251L91.3833 92.1347C93.9584 89.1107 96.6423 86.1008 99.3602 83.1886L100.815 84.546C98.1181 87.4364 95.4546 90.424 92.8985 93.4251ZM482.103 86.0537C479.429 83.1439 476.655 80.2598 473.86 77.4826L475.263 76.0707C478.08 78.8698 480.874 81.7752 483.568 84.7069L482.103 86.0537ZM109.125 76.0397L107.734 74.6171C110.58 71.8331 113.525 69.0807 116.487 66.4367L117.813 67.9215C114.873 70.5451 111.95 73.2766 109.125 76.0397H109.125ZM465.236 69.2935C462.306 66.6364 459.28 64.0156 456.244 61.5043L457.514 59.9709C460.572 62.5013 463.621 65.1419 466.574 67.8195L465.236 69.2935ZM126.859 60.207L125.602 58.6639C128.681 56.1574 131.862 53.6853 135.059 51.3163L136.244 52.9148C133.072 55.2663 129.914 57.7194 126.859 60.207ZM446.906 54.1304C443.745 51.7502 440.492 49.4147 437.238 47.1889L438.361 45.5467C441.641 47.789 444.918 50.142 448.104 52.5407L446.906 54.1304ZM145.949 46.0603L144.839 44.4094C148.133 42.1929 151.525 40.0225 154.921 37.9572L155.955 39.6576C152.586 41.707 149.219 43.8613 145.949 46.0603ZM427.26 40.696C423.896 38.6146 420.442 36.5856 416.994 34.6645L417.962 32.9261C421.438 34.8618 424.918 36.9068 428.308 39.0033L427.26 40.696ZM166.24 33.7205L165.284 31.9743C168.77 30.0673 172.344 28.2172 175.907 26.4744L176.782 28.2624C173.246 29.9915 169.699 31.8276 166.24 33.7205L166.24 33.7205ZM406.459 29.1097C402.917 27.3455 399.289 25.6411 395.675 24.0441L396.48 22.2241C400.122 23.8333 403.778 25.5508 407.347 27.3286L406.459 29.1097ZM187.56 23.2945L186.768 21.4686C190.411 19.8901 194.137 18.3761 197.843 16.9686L198.55 18.8294C194.872 20.2258 191.174 21.728 187.56 23.2945L187.56 23.2945ZM384.667 19.479C380.981 18.0501 377.209 16.6868 373.455 15.4275L374.088 13.5404C377.871 14.81 381.672 16.1835 385.386 17.6241L384.667 19.479ZM209.762 14.8653L209.142 12.9744C212.924 11.7345 216.784 10.5669 220.612 9.50534L221.144 11.4225C217.345 12.4763 213.515 13.6346 209.762 14.8653L209.762 14.8653ZM362.095 11.9064C358.299 10.8244 354.427 9.81677 350.587 8.91162L351.043 6.97499C354.914 7.88695 358.815 8.90239 362.641 9.99218L362.095 11.9064ZM232.674 8.50787L232.231 6.56784C236.109 5.6821 240.059 4.87512 243.971 4.16965L244.325 6.12766C240.442 6.82824 236.522 7.62892 232.674 8.50784V8.50787ZM338.952 6.45123C335.076 5.72391 331.128 5.07677 327.217 4.52772L327.493 2.55709C331.434 3.11048 335.413 3.7625 339.319 4.49517L338.952 6.45123ZM256.074 4.28578L255.811 2.31318C259.751 1.78748 263.758 1.34536 267.72 1.00042L267.893 2.98272C263.961 3.32569 259.985 3.76394 256.074 4.28575L256.074 4.28578ZM315.406 3.14401C311.485 2.77475 307.494 2.49004 303.544 2.29909L303.641 0.310988C307.621 0.503834 311.642 0.79055 315.592 1.16268L315.406 3.14401ZM279.762 2.21941L279.679 0.231308C283.337 0.0787384 287.065 0.00100359 290.761 3.05176e-05L291.662 0.00144782L291.656 1.99154L290.761 1.99006C287.093 1.99104 283.392 2.06828 279.762 2.21938V2.21941Z" fill="#E6E6E6"/>
<path d="M291.387 522.031V413.21C291.388 411.685 291.995 410.224 293.073 409.146C294.151 408.068 295.613 407.462 297.138 407.46H310.197C311.722 407.462 313.184 408.068 314.262 409.146C315.34 410.224 315.946 411.685 315.948 413.21V522.031C315.946 523.555 315.34 525.017 314.262 526.094C313.184 527.172 311.722 527.779 310.197 527.781H297.138C295.613 527.779 294.151 527.172 293.073 526.094C291.995 525.017 291.388 523.555 291.387 522.031Z" fill="#2F2E41"/>
<path d="M265.558 522.031V413.21C265.56 411.685 266.166 410.224 267.245 409.146C268.323 408.068 269.784 407.462 271.309 407.46H284.368C285.893 407.462 287.355 408.068 288.433 409.146C289.511 410.224 290.118 411.685 290.12 413.21V522.031C290.118 523.555 289.511 525.017 288.433 526.094C287.355 527.172 285.893 527.779 284.368 527.781H271.309C269.784 527.779 268.323 527.172 267.245 526.094C266.166 525.017 265.56 523.555 265.558 522.031Z" fill="#2F2E41"/>
<path d="M317.19 377.284H264.316C261.384 377.284 259.007 379.66 259.007 382.591V442.308C259.007 445.239 261.384 447.615 264.316 447.615H317.19C320.122 447.615 322.499 445.239 322.499 442.308V382.591C322.499 379.66 320.122 377.284 317.19 377.284Z" fill="#2F2E41"/>
<path d="M201.863 206.315C201.863 206.315 175.179 218.709 152.599 226.928C138.586 195.302 118.399 196.486 118.399 196.486L106.16 204.911L108.367 217.548L107.765 238.21L104.555 249.042L109.162 249.874L111.764 250.346L112.156 249.992C111.507 252.564 111.244 255.219 111.377 257.868L227.143 239.815C227.143 239.815 223.131 221.159 201.863 206.315Z" fill="#E6E6E6"/>
<path d="M167.678 368.978L175.44 379.478C177.183 381.836 180.507 382.334 182.865 380.592L270.395 315.914C272.753 314.172 273.252 310.849 271.509 308.491L263.748 297.991C262.005 295.634 258.681 295.135 256.323 296.877L168.792 361.555C166.434 363.297 165.936 366.621 167.678 368.978Z" fill="#436280"/>
<path d="M316.827 294.424L305.292 300.545C302.702 301.919 301.717 305.132 303.091 307.721L354.112 403.845C355.486 406.434 358.7 407.419 361.29 406.045L372.825 399.925C375.415 398.551 376.4 395.338 375.026 392.748L324.005 296.625C322.631 294.035 319.417 293.05 316.827 294.424Z" fill="#436280"/>
<path d="M349.165 337.085L330.326 349.572C327.447 351.1 323.999 350.239 322.624 347.649L301.818 308.451C300.444 305.862 301.664 302.524 304.543 300.997L317.366 294.193C320.245 292.666 323.693 293.526 325.067 296.116L351.889 329.631C353.264 332.22 352.044 335.558 349.165 337.085Z" fill="#CCCCCC"/>
<path d="M220.783 325.602L233.028 341.861C233.991 342.887 235.323 343.489 236.73 343.533C238.138 343.578 239.505 343.062 240.532 342.098L272.894 311.728C273.92 310.765 274.522 309.433 274.567 308.026C274.611 306.619 274.095 305.252 273.131 304.226L264.194 294.706C263.231 293.68 261.899 293.078 260.491 293.034C259.084 292.989 257.717 293.505 256.69 294.469L221.02 318.1C219.994 319.063 219.392 320.395 219.347 321.802C219.303 323.209 219.819 324.576 220.783 325.602Z" fill="#CCCCCC"/>
<path d="M320.421 292.86H261.085C258.153 292.86 255.776 295.237 255.776 298.168V424.204C255.776 427.136 258.153 429.512 261.085 429.512H320.421C323.353 429.512 325.73 427.136 325.73 424.204V298.168C325.73 295.237 323.353 292.86 320.421 292.86Z" fill="#CCCCCC"/>
<path d="M290.406 284.635C316.559 284.635 337.759 263.439 337.759 237.291C337.759 211.144 316.559 189.947 290.406 189.947C264.254 189.947 243.053 211.144 243.053 237.291C243.053 263.439 264.254 284.635 290.406 284.635Z" fill="#436280"/>
<path d="M295.925 253.098C293 253.016 289.359 252.914 286.557 250.867C285.721 250.232 285.035 249.422 284.546 248.494C284.057 247.566 283.777 246.542 283.725 245.495C283.674 244.75 283.797 244.004 284.082 243.315C284.368 242.625 284.809 242.011 285.371 241.521C286.835 240.284 288.974 239.992 291.279 240.671L288.891 223.22L290.645 222.98L293.452 243.495L291.988 242.823C290.292 242.044 287.961 241.649 286.513 242.872C286.158 243.192 285.881 243.589 285.704 244.033C285.527 244.477 285.455 244.956 285.494 245.432C285.537 246.212 285.747 246.974 286.11 247.665C286.474 248.356 286.982 248.961 287.6 249.438C289.78 251.031 292.683 251.238 295.976 251.329L295.925 253.098Z" fill="#2F2E41"/>
<path d="M280.221 224.725H270.691V226.494H280.221V224.725Z" fill="#2F2E41"/>
<path d="M310.304 224.725H300.774V226.494H310.304V224.725Z" fill="#2F2E41"/>
<path d="M259.124 200.294C251.449 199.419 245.505 192.067 244.853 184.607C244.076 175.733 249.245 167.304 256.337 162.324C263.753 157.116 272.994 154.941 281.934 154.462C299.374 153.595 316.514 159.243 330.02 170.309C336.72 175.872 342.976 182.958 345.347 191.517C347.407 198.95 345.731 207.371 339.751 212.577C338.272 213.853 336.544 214.809 334.677 215.383C332.81 215.958 330.845 216.14 328.904 215.917C324.264 215.435 319.983 212.996 316.278 210.302C309.069 205.062 303.152 197.762 294.37 195.024C287.931 193.016 279.574 194.784 275.639 200.606C274.746 201.938 274.168 203.456 273.947 205.045C273.866 205.384 273.916 205.741 274.088 206.044C274.261 206.347 274.541 206.574 274.874 206.677C275.213 206.769 275.575 206.723 275.881 206.549C276.186 206.376 276.411 206.089 276.507 205.751C277.54 198.418 286.558 195.681 292.886 197.356C302.113 199.798 308.307 208.03 315.878 213.26C319.858 216.01 324.385 218.209 329.267 218.603C333.475 218.933 337.652 217.651 340.949 215.015C347.416 209.909 349.89 201.127 348.459 193.221C346.803 184.064 340.64 176.217 333.876 170.142C320.166 157.955 302.366 151.381 284.024 151.729C274.669 151.944 264.907 153.875 256.848 158.818C249.03 163.614 242.987 171.636 242.198 180.962C241.503 189.17 245.907 197.756 253.468 201.352C255.251 202.196 257.163 202.736 259.124 202.948C260.818 203.141 260.805 200.486 259.124 200.294H259.124Z" fill="#2F2E41"/>
<path d="M111.677 248.741L117.295 246.936C117.897 245.783 116.795 246.523 117.321 245.401C131.534 215.085 118.399 196.486 118.399 196.486L108.237 203.481C108.212 203.424 108.191 203.364 108.166 203.306C108.166 203.306 106.36 199.294 103.552 202.303C103.552 202.303 112.379 223.767 102.548 250.446L113.985 255.662L118.399 250.446L118.499 249.945L110.599 249.227L111.677 248.741Z" fill="#CCCCCC"/>
<path d="M271.885 361.376C226.742 351.347 184.709 372.108 184.709 372.108L184.594 372.006L167.855 357.064L102.448 250.346L118.399 250.446C162.739 223.968 225.137 227.578 225.137 227.578C252.022 258.069 271.885 361.376 271.885 361.376Z" fill="#3F3D56"/>
<path opacity="0.1" d="M184.594 372.006L167.855 357.064L102.448 250.346L118.399 250.446C118.399 250.446 181.972 334.394 184.594 372.006Z" fill="black"/>
<path d="M191.941 288.739C205.607 284.549 214.525 274.111 211.861 265.425C209.196 256.74 195.958 253.097 182.292 257.288C168.626 261.479 159.708 271.917 162.372 280.602C165.037 289.287 178.275 292.93 191.941 288.739Z" fill="#436280"/>
<path d="M52.2126 198.603C48.6081 211.925 36.262 220.175 36.262 220.175C36.262 220.175 29.7599 206.827 33.3644 193.505C36.9688 180.184 49.3149 171.933 49.3149 171.933C49.3149 171.933 55.817 185.281 52.2126 198.603Z" fill="#CCCCCC"/>
<path d="M19.422 198.603C23.0265 211.925 35.3725 220.175 35.3725 220.175C35.3725 220.175 41.8746 206.827 38.2702 193.505C34.6658 180.184 22.3197 171.933 22.3197 171.933C22.3197 171.933 15.8175 185.281 19.422 198.603Z" fill="#CCCCCC"/>
<path d="M24.7186 195.74C34.6093 205.366 35.8174 220.164 35.8174 220.164C35.8174 220.164 20.9895 219.355 11.0988 209.729C1.20807 200.102 0 185.304 0 185.304C0 185.304 14.8279 186.114 24.7186 195.74Z" fill="#3F3D56"/>
<path d="M46.9162 195.74C37.0255 205.366 35.8174 220.164 35.8174 220.164C35.8174 220.164 50.6453 219.355 60.536 209.729C70.4267 200.102 71.6347 185.304 71.6347 185.304C71.6347 185.304 56.8069 186.114 46.9162 195.74Z" fill="#3F3D56"/>
<path d="M548.578 348.988C544.973 362.309 532.627 370.56 532.627 370.56C532.627 370.56 526.125 357.212 529.73 343.89C533.334 330.568 545.68 322.318 545.68 322.318C545.68 322.318 552.182 335.666 548.578 348.988Z" fill="#CCCCCC"/>
<path d="M515.787 348.988C519.392 362.309 531.738 370.56 531.738 370.56C531.738 370.56 538.24 357.212 534.635 343.89C531.031 330.568 518.685 322.318 518.685 322.318C518.685 322.318 512.183 335.666 515.787 348.988Z" fill="#CCCCCC"/>
<path d="M521.084 346.125C530.974 355.751 532.183 370.549 532.183 370.549C532.183 370.549 517.355 369.74 507.464 360.113C497.573 350.487 496.365 335.689 496.365 335.689C496.365 335.689 511.193 336.498 521.084 346.125Z" fill="#3F3D56"/>
<path d="M543.281 346.125C533.391 355.751 532.183 370.549 532.183 370.549C532.183 370.549 547.011 369.74 556.901 360.113C566.792 350.487 568 335.689 568 335.689C568 335.689 553.172 336.498 543.281 346.125Z" fill="#3F3D56"/>
</g>
<defs>
<clipPath id="clip0_261_4490">
<rect width="568" height="529" fill="white"/>
</clipPath>
</defs>
</svg>
